/* XPM */
static char * boms_xpm[] = {
"20 20 188 2",
"  	c None",
". 	c #000000",
"+ 	c #808080",
"@ 	c #C0DCC0",
"# 	c #553F55",
"$ 	c #555F55",
"% 	c #7F5F55",
"& 	c #7F7F55",
"* 	c #AA5F55",
"= 	c #AA9FAA",
"- 	c #AABFAA",
"; 	c #D47F00",
"> 	c #D49F55",
", 	c #D49FAA",
"' 	c #D4BFAA",
") 	c #D4DFFF",
"! 	c #FFBF55",
"~ 	c #FFDF55",
"{ 	c #FFDFAA",
"] 	c #2A1F00",
"^ 	c #2A1F55",
"/ 	c #2A3F55",
"( 	c #FFFBF0",
"_ 	c #A0A0A4",
": 	c #FFFFFF",
"< 	c #800000",
"[ 	c #008000",
"} 	c #808000",
"| 	c #000080",
"1 	c #800080",
"2 	c #008080",
"3 	c #A6CAF0",
"4 	c #2A3FAA",
"5 	c #2A3FFF",
"6 	c #2A5F00",
"7 	c #2A5F55",
"8 	c #2A5FAA",
"9 	c #2A5FFF",
"0 	c #2A7F00",
"a 	c #2A7F55",
"b 	c #2A7FAA",
"c 	c #2A7FFF",
"d 	c #2A9F00",
"e 	c #2A9F55",
"f 	c #2A9FAA",
"g 	c #2A9FFF",
"h 	c #2ABF00",
"i 	c #2ABF55",
"j 	c #2ABFAA",
"k 	c #2ABFFF",
"l 	c #2ADF00",
"m 	c #2ADF55",
"n 	c #2ADFAA",
"o 	c #2ADFFF",
"p 	c #2AFF00",
"q 	c #2AFF55",
"r 	c #2AFFAA",
"s 	c #2AFFFF",
"t 	c #550000",
"u 	c #550055",
"v 	c #5500AA",
"w 	c #5500FF",
"x 	c #551F00",
"y 	c #551F55",
"z 	c #551FAA",
"A 	c #551FFF",
"B 	c #553F00",
"C 	c #553FAA",
"D 	c #553FFF",
"E 	c #555F00",
"F 	c #555FAA",
"G 	c #555FFF",
"H 	c #557F00",
"I 	c #557F55",
"J 	c #557FAA",
"K 	c #557FFF",
"L 	c #559F00",
"M 	c #559F55",
"N 	c #559FAA",
"O 	c #559FFF",
"P 	c #55BF00",
"Q 	c #55BF55",
"R 	c #55BFAA",
"S 	c #55BFFF",
"T 	c #55DF00",
"U 	c #55DF55",
"V 	c #55DFAA",
"W 	c #55DFFF",
"X 	c #55FF00",
"Y 	c #55FF55",
"Z 	c #55FFAA",
"` 	c #55FFFF",
" .	c #7F0000",
"..	c #7F0055",
"+.	c #7F00AA",
"@.	c #7F00FF",
"#.	c #7F1F00",
"$.	c #7F1F55",
"%.	c #7F1FAA",
"&.	c #7F1FFF",
"*.	c #7F3F00",
"=.	c #7F3F55",
"-.	c #7F3FAA",
";.	c #7F3FFF",
">.	c #7F5F00",
",.	c #7F5FAA",
"'.	c #7F5FFF",
").	c #7F7F00",
"!.	c #7F7FAA",
"~.	c #7F7FFF",
"{.	c #7F9F00",
"].	c #7F9F55",
"^.	c #7F9FAA",
"/.	c #7F9FFF",
"(.	c #7FBF00",
"_.	c #7FBF55",
":.	c #7FBFAA",
"<.	c #7FBFFF",
"[.	c #7FDF00",
"}.	c #7FDF55",
"|.	c #7FDFAA",
"1.	c #7FDFFF",
"2.	c #7FFF00",
"3.	c #7FFF55",
"4.	c #7FFFAA",
"5.	c #7FFFFF",
"6.	c #AA0000",
"7.	c #AA0055",
"8.	c #AA00AA",
"9.	c #AA00FF",
"0.	c #AA1F00",
"a.	c #AA1F55",
"b.	c #AA1FAA",
"c.	c #AA1FFF",
"d.	c #AA3F00",
"e.	c #AA3F55",
"f.	c #AA3FAA",
"g.	c #AA3FFF",
"h.	c #AA5F00",
"i.	c #AA5FAA",
"j.	c #AA5FFF",
"k.	c #AA7F00",
"l.	c #AA7F55",
"m.	c #AA7FAA",
"n.	c #AA7FFF",
"o.	c #AA9F00",
"p.	c #AA9F55",
"q.	c #AA9FFF",
"r.	c #AABF00",
"s.	c #AABF55",
"t.	c #AABFFF",
"u.	c #AADF00",
"v.	c #AADF55",
"w.	c #AADFAA",
"x.	c #AADFFF",
"y.	c #AAFF00",
"z.	c #AAFF55",
"A.	c #AAFFAA",
"B.	c #AAFFFF",
"C.	c #D40000",
"D.	c #D40055",
"E.	c #D400AA",
"F.	c #D400FF",
"G.	c #D41F00",
"H.	c #D41F55",
"I.	c #D41FAA",
"J.	c #D41FFF",
"K.	c #D43F00",
"L.	c #D43F55",
"M.	c #D43FAA",
"N.	c #D43FFF",
"O.	c #D45F00",
"P.	c #D45F55",
"Q.	c #D45FAA",
"R.	c #D45FFF",
"S.	c #D47F55",
"T.	c #D47FAA",
"U.	c #D47FFF",
"V.	c #D49F00",
"W.	c #D49FFF",
"X.	c #D4BF00",
"Y.	c #D4BF55",
"Z.	c #D4BFFF",
"`.	c #D4DF00",
" +	c #D4DF55",
".+	c #D4DFAA",
"++	c #D4FF00",
"@+	c #FFFFFF",
"            / ] / # / # ] ] +           ",
"          + # $ # / B ^ / # + +         ",
"        + ] $ $ $ + $ + % $ $ ] %       ",
"        # . $ # + _ + : _ ] # / #       ",
"      - _   ] / + - + ( _ / /   _ = _   ",
"      _ = _ -   / # # $ / # _ $ # + _   ",
"        = _ + + % $ $ $ $ + + $ ^ $ _   ",
"          + ] _ @ - ' - ) _ ] # $ _ _   ",
"            / + = _ _ _ - _ / $ _ @     ",
"            _ $ $ $ $ - ( ) _ _ _ -     ",
"    +         + + + + @ ) ( ) -         ",
"  + _         _ _ _ _ = ) @ ) ) )       ",
"  $ - $ #             + @ ) ) @         ",
"  $ @ % + $ $ $ _ _   + 3 ) @ ) )       ",
"  % + / _ + ) + + + + + + - ) )         ",
"  / # $ . $ _ / % # + # $ + + & >       ",
"  # - % # $ %   + +   + +       * ~     ",
"  + @ $                           ;     ",
"    _ +                             !   ",
"    $                               ,   "};
