/* XPM */
static char * boos_xpm[] = {
"20 20 173 2",
"  	c None",
". 	c #808080",
"+ 	c #C0DCC0",
"@ 	c #550000",
"# 	c #551F00",
"$ 	c #553F55",
"% 	c #555F55",
"& 	c #7F1F00",
"* 	c #7F5F55",
"= 	c #AA1F00",
"- 	c #AA3F00",
"; 	c #AA5F55",
"> 	c #AA7F00",
", 	c #AA9FAA",
"' 	c #AABFAA",
") 	c #D41F00",
"! 	c #D43F00",
"~ 	c #D45F55",
"{ 	c #D47F00",
"] 	c #D49FAA",
"^ 	c #D4BFAA",
"/ 	c #D4DFFF",
"( 	c #FFBF55",
"_ 	c #FFDFAA",
": 	c #2A1F55",
"< 	c #2A3F55",
"[ 	c #FFFBF0",
"} 	c #A0A0A4",
"| 	c #FFFFFF",
"1 	c #000000",
"2 	c #800000",
"3 	c #008000",
"4 	c #808000",
"5 	c #000080",
"6 	c #800080",
"7 	c #008080",
"8 	c #A6CAF0",
"9 	c #2A3FAA",
"0 	c #2A3FFF",
"a 	c #2A5F00",
"b 	c #2A5F55",
"c 	c #2A5FAA",
"d 	c #2A5FFF",
"e 	c #2A7F00",
"f 	c #2A7F55",
"g 	c #2A7FAA",
"h 	c #2A7FFF",
"i 	c #2A9F00",
"j 	c #2A9F55",
"k 	c #2A9FAA",
"l 	c #2A9FFF",
"m 	c #2ABF00",
"n 	c #2ABF55",
"o 	c #2ABFAA",
"p 	c #2ABFFF",
"q 	c #2ADF00",
"r 	c #2ADF55",
"s 	c #2ADFAA",
"t 	c #2ADFFF",
"u 	c #2AFF00",
"v 	c #2AFF55",
"w 	c #2AFFAA",
"x 	c #2AFFFF",
"y 	c #550055",
"z 	c #5500AA",
"A 	c #5500FF",
"B 	c #551F55",
"C 	c #551FAA",
"D 	c #551FFF",
"E 	c #553F00",
"F 	c #553FAA",
"G 	c #553FFF",
"H 	c #555F00",
"I 	c #555FAA",
"J 	c #555FFF",
"K 	c #557F00",
"L 	c #557F55",
"M 	c #557FAA",
"N 	c #557FFF",
"O 	c #559F00",
"P 	c #559F55",
"Q 	c #559FAA",
"R 	c #559FFF",
"S 	c #55BF00",
"T 	c #55BF55",
"U 	c #55BFAA",
"V 	c #55BFFF",
"W 	c #55DF00",
"X 	c #55DF55",
"Y 	c #55DFAA",
"Z 	c #55DFFF",
"` 	c #55FF00",
" .	c #55FF55",
"..	c #55FFAA",
"+.	c #55FFFF",
"@.	c #7F0000",
"#.	c #7F0055",
"$.	c #7F00AA",
"%.	c #7F00FF",
"&.	c #7F1F55",
"*.	c #7F1FAA",
"=.	c #7F1FFF",
"-.	c #7F3F00",
";.	c #7F3F55",
">.	c #7F3FAA",
",.	c #7F3FFF",
"'.	c #7F5F00",
").	c #7F5FAA",
"!.	c #7F5FFF",
"~.	c #7F7F00",
"{.	c #7F7F55",
"].	c #7F7FAA",
"^.	c #7F7FFF",
"/.	c #7F9F00",
"(.	c #7F9F55",
"_.	c #7F9FAA",
":.	c #7F9FFF",
"<.	c #7FBF00",
"[.	c #7FBF55",
"}.	c #7FBFAA",
"|.	c #7FBFFF",
"1.	c #7FDF00",
"2.	c #7FDF55",
"3.	c #7FDFAA",
"4.	c #7FDFFF",
"5.	c #7FFF00",
"6.	c #7FFF55",
"7.	c #7FFFAA",
"8.	c #7FFFFF",
"9.	c #AA0000",
"0.	c #AA0055",
"a.	c #AA00AA",
"b.	c #AA00FF",
"c.	c #AA1F55",
"d.	c #AA1FAA",
"e.	c #AA1FFF",
"f.	c #AA3F55",
"g.	c #AA3FAA",
"h.	c #AA3FFF",
"i.	c #AA5F00",
"j.	c #AA5FAA",
"k.	c #AA5FFF",
"l.	c #AA7F55",
"m.	c #AA7FAA",
"n.	c #AA7FFF",
"o.	c #AA9F00",
"p.	c #AA9F55",
"q.	c #AA9FFF",
"r.	c #AABF00",
"s.	c #AABF55",
"t.	c #AABFFF",
"u.	c #AADF00",
"v.	c #AADF55",
"w.	c #AADFAA",
"x.	c #AADFFF",
"y.	c #AAFF00",
"z.	c #AAFF55",
"A.	c #AAFFAA",
"B.	c #AAFFFF",
"C.	c #D40000",
"D.	c #D40055",
"E.	c #D400AA",
"F.	c #D400FF",
"G.	c #D41F55",
"H.	c #D41FAA",
"I.	c #D41FFF",
"J.	c #D43F55",
"K.	c #D43FAA",
"L.	c #D43FFF",
"M.	c #D45F00",
"N.	c #D45FAA",
"O.	c #D45FFF",
"P.	c #FFFFFF",
"                                        ",
"                                        ",
"                                        ",
"                                . * .   ",
"} % % .                       . . . . . ",
": * _.* % . . . . . . . . . % $ %   }   ",
"$     < % . . . . . . . . . {.$ .       ",
"% $ < $                     . $ %   %   ",
"    % }                 [       $ $ $   ",
"                      / [ / /   % % }   ",
"                      + / [ /           ",
"                      ' / + / /         ",
"  * & &.# &.# &.# ]   . + / / + /       ",
"; - = = = = = = = =   . 8 / + / + %   } ",
"# G.= = = = = = = ) $ , . ' / / ] | , < ",
"; ) = = & & & & ;.= *   . . . * > {.  . ",
"    &.& &.& &.& &               ; (     ",
"                                  {     ",
"                                    (   ",
"                                    ]   "};
