/* XPM */
static char * dspBacklogByWarehouse_xpm[] = {
"20 20 225 2",
"  	c None",
". 	c #000000",
"+ 	c #808080",
"@ 	c #C0DCC0",
"# 	c #A6CAF0",
"$ 	c #551F00",
"% 	c #553F00",
"& 	c #555F00",
"* 	c #555F55",
"= 	c #555FAA",
"- 	c #555FFF",
"; 	c #557F00",
"> 	c #557F55",
", 	c #559F55",
"' 	c #7F3F00",
") 	c #7F5F00",
"! 	c #7F5F55",
"~ 	c #7F5FFF",
"{ 	c #7F7F55",
"] 	c #7F7FAA",
"^ 	c #7F7FFF",
"/ 	c #7F9F55",
"( 	c #7FBF55",
"_ 	c #AA5F00",
": 	c #AA7F00",
"< 	c #AA7F55",
"[ 	c #AA9FAA",
"} 	c #AA9FFF",
"| 	c #AABFAA",
"1 	c #AADFAA",
"2 	c #AAFFAA",
"3 	c #D47F00",
"4 	c #D47F55",
"5 	c #D49F55",
"6 	c #D49FAA",
"7 	c #D4DFFF",
"8 	c #D4FFAA",
"9 	c #FFBF55",
"0 	c #FFDF55",
"a 	c #FFDFAA",
"b 	c #CCCCFF",
"c 	c #2A0000",
"d 	c #2A1F00",
"e 	c #2A1F55",
"f 	c #2A3F55",
"g 	c #FFFBF0",
"h 	c #A0A0A4",
"i 	c #FFFFFF",
"j 	c #800000",
"k 	c #008000",
"l 	c #808000",
"m 	c #000080",
"n 	c #800080",
"o 	c #008080",
"p 	c #2A3FAA",
"q 	c #2A3FFF",
"r 	c #2A5F00",
"s 	c #2A5F55",
"t 	c #2A5FAA",
"u 	c #2A5FFF",
"v 	c #2A7F00",
"w 	c #2A7F55",
"x 	c #2A7FAA",
"y 	c #2A7FFF",
"z 	c #2A9F00",
"A 	c #2A9F55",
"B 	c #2A9FAA",
"C 	c #2A9FFF",
"D 	c #2ABF00",
"E 	c #2ABF55",
"F 	c #2ABFAA",
"G 	c #2ABFFF",
"H 	c #2ADF00",
"I 	c #2ADF55",
"J 	c #2ADFAA",
"K 	c #2ADFFF",
"L 	c #2AFF00",
"M 	c #2AFF55",
"N 	c #2AFFAA",
"O 	c #2AFFFF",
"P 	c #550000",
"Q 	c #550055",
"R 	c #5500AA",
"S 	c #5500FF",
"T 	c #551F55",
"U 	c #551FAA",
"V 	c #551FFF",
"W 	c #553F55",
"X 	c #553FAA",
"Y 	c #553FFF",
"Z 	c #557FAA",
"` 	c #557FFF",
" .	c #559F00",
"..	c #559FAA",
"+.	c #559FFF",
"@.	c #55BF00",
"#.	c #55BF55",
"$.	c #55BFAA",
"%.	c #55BFFF",
"&.	c #55DF00",
"*.	c #55DF55",
"=.	c #55DFAA",
"-.	c #55DFFF",
";.	c #55FF00",
">.	c #55FF55",
",.	c #55FFAA",
"'.	c #55FFFF",
").	c #7F0000",
"!.	c #7F0055",
"~.	c #7F00AA",
"{.	c #7F00FF",
"].	c #7F1F00",
"^.	c #7F1F55",
"/.	c #7F1FAA",
"(.	c #7F1FFF",
"_.	c #7F3F55",
":.	c #7F3FAA",
"<.	c #7F3FFF",
"[.	c #7F5FAA",
"}.	c #7F7F00",
"|.	c #7F9F00",
"1.	c #7F9FAA",
"2.	c #7F9FFF",
"3.	c #7FBF00",
"4.	c #7FBFAA",
"5.	c #7FBFFF",
"6.	c #7FDF00",
"7.	c #7FDF55",
"8.	c #7FDFAA",
"9.	c #7FDFFF",
"0.	c #7FFF00",
"a.	c #7FFF55",
"b.	c #7FFFAA",
"c.	c #7FFFFF",
"d.	c #AA0000",
"e.	c #AA0055",
"f.	c #AA00AA",
"g.	c #AA00FF",
"h.	c #AA1F00",
"i.	c #AA1F55",
"j.	c #AA1FAA",
"k.	c #AA1FFF",
"l.	c #AA3F00",
"m.	c #AA3F55",
"n.	c #AA3FAA",
"o.	c #AA3FFF",
"p.	c #AA5F55",
"q.	c #AA5FAA",
"r.	c #AA5FFF",
"s.	c #AA7FAA",
"t.	c #AA7FFF",
"u.	c #AA9F00",
"v.	c #AA9F55",
"w.	c #AABF00",
"x.	c #AABF55",
"y.	c #AABFFF",
"z.	c #AADF00",
"A.	c #AADF55",
"B.	c #AADFFF",
"C.	c #AAFF00",
"D.	c #AAFF55",
"E.	c #AAFFFF",
"F.	c #D40000",
"G.	c #D40055",
"H.	c #D400AA",
"I.	c #D400FF",
"J.	c #D41F00",
"K.	c #D41F55",
"L.	c #D41FAA",
"M.	c #D41FFF",
"N.	c #D43F00",
"O.	c #D43F55",
"P.	c #D43FAA",
"Q.	c #D43FFF",
"R.	c #D45F00",
"S.	c #D45F55",
"T.	c #D45FAA",
"U.	c #D45FFF",
"V.	c #D47FAA",
"W.	c #D47FFF",
"X.	c #D49F00",
"Y.	c #D49FFF",
"Z.	c #D4BF00",
"`.	c #D4BF55",
" +	c #D4BFAA",
".+	c #D4BFFF",
"++	c #D4DF00",
"@+	c #D4DF55",
"#+	c #D4DFAA",
"$+	c #D4FF00",
"%+	c #D4FF55",
"&+	c #D4FFFF",
"*+	c #FF0055",
"=+	c #FF00AA",
"-+	c #FF1F00",
";+	c #FF1F55",
">+	c #FF1FAA",
",+	c #FF1FFF",
"'+	c #FF3F00",
")+	c #FF3F55",
"!+	c #FF3FAA",
"~+	c #FF3FFF",
"{+	c #FF5F00",
"]+	c #FF5F55",
"^+	c #FF5FAA",
"/+	c #FF5FFF",
"(+	c #FF7F00",
"_+	c #FF7F55",
":+	c #FF7FAA",
"<+	c #FF7FFF",
"[+	c #FF9F00",
"}+	c #FF9F55",
"|+	c #FF9FAA",
"1+	c #FF9FFF",
"2+	c #FFBF00",
"3+	c #FFBFAA",
"4+	c #FFBFFF",
"5+	c #FFDF00",
"6+	c #FFDFFF",
"7+	c #FFFF55",
"8+	c #FFFFAA",
"9+	c #FFCCFF",
"0+	c #33FFFF",
"a+	c #66FFFF",
"b+	c #FFFFFF",
"    ^ ^ = - ^ * h             ) ' {     ",
"  ^ } | 6+g 7 ^ * h       < _ ) _ _ !   ",
"^ b g h g i i g ^ * h   ) 5 5 : _ _ ) d ",
"^ g i @ | b | i } * h   < < 5 5 ) % ' $ ",
"= 7 i i h | 6+i ] * h . ) 3 X.< ' c % % ",
"- g i i i i i i } h i i % 4 `.X.' c % d ",
"^ 7 i i i i i i * h i i . + ) 5 ) d *   ",
"  ^ g i g i i } * h @ g d . . d !       ",
"    ^ } ] } ^ * h g / | 7 #+7 @ .       ",
"      * * * ! * h ; > h g 7 @ 8 .       ",
"        h h h h > / / @ 7 g 7 7 .       ",
"          d 7 #+, ; > [ 7 7 @ 7 d       ",
"          d i i g x.> + @ 7 7 7 *       ",
"          d 7 8 @ @ / + @ 7 @ 7 h       ",
"          d i g ( / , ; + | 7 7 &       ",
"          d &+g 1 ( ; , h h | { _       ",
"          f g 8 &+8 | 1 1 8 2 1 $ 0     ",
"          . d e d d d d d d d d . 3     ",
"                                    9   ",
"                                    6   "};
