/* XPM */
static char * dspBacklogByItem_xpm[] = {
"20 20 210 2",
"  	c None",
". 	c #000000",
"+ 	c #808080",
"@ 	c #C0DCC0",
"# 	c #A6CAF0",
"$ 	c #551F00",
"% 	c #555F00",
"& 	c #555F55",
"* 	c #555FAA",
"= 	c #555FFF",
"- 	c #557F00",
"; 	c #557F55",
"> 	c #559F55",
", 	c #7F3F00",
"' 	c #7F5F55",
") 	c #7F5FFF",
"! 	c #7F7F55",
"~ 	c #7F7FAA",
"{ 	c #7F7FFF",
"] 	c #7F9F55",
"^ 	c #7FBF55",
"/ 	c #AA3F00",
"( 	c #AA5F00",
"_ 	c #AA5F55",
": 	c #AA9FFF",
"< 	c #AABFAA",
"[ 	c #AADFAA",
"} 	c #AAFFAA",
"| 	c #D43F00",
"1 	c #D45F00",
"2 	c #D47F00",
"3 	c #D49F55",
"4 	c #D49FAA",
"5 	c #D4BFAA",
"6 	c #D4DFFF",
"7 	c #D4FFAA",
"8 	c #FF5F00",
"9 	c #FF7F00",
"0 	c #FFBF55",
"a 	c #FFDF55",
"b 	c #FFDFAA",
"c 	c #CCCCFF",
"d 	c #2A1F00",
"e 	c #2A1F55",
"f 	c #2A3F55",
"g 	c #FFFBF0",
"h 	c #A0A0A4",
"i 	c #FFFFFF",
"j 	c #800000",
"k 	c #008000",
"l 	c #808000",
"m 	c #000080",
"n 	c #800080",
"o 	c #008080",
"p 	c #2A3FAA",
"q 	c #2A3FFF",
"r 	c #2A5F00",
"s 	c #2A5F55",
"t 	c #2A5FAA",
"u 	c #2A5FFF",
"v 	c #2A7F00",
"w 	c #2A7F55",
"x 	c #2A7FAA",
"y 	c #2A7FFF",
"z 	c #2A9F00",
"A 	c #2A9F55",
"B 	c #2A9FAA",
"C 	c #2A9FFF",
"D 	c #2ABF00",
"E 	c #2ABF55",
"F 	c #2ABFAA",
"G 	c #2ABFFF",
"H 	c #2ADF00",
"I 	c #2ADF55",
"J 	c #2ADFAA",
"K 	c #2ADFFF",
"L 	c #2AFF00",
"M 	c #2AFF55",
"N 	c #2AFFAA",
"O 	c #2AFFFF",
"P 	c #550000",
"Q 	c #550055",
"R 	c #5500AA",
"S 	c #5500FF",
"T 	c #551F55",
"U 	c #551FAA",
"V 	c #551FFF",
"W 	c #553F00",
"X 	c #553F55",
"Y 	c #553FAA",
"Z 	c #553FFF",
"` 	c #557FAA",
" .	c #557FFF",
"..	c #559F00",
"+.	c #559FAA",
"@.	c #559FFF",
"#.	c #55BF00",
"$.	c #55BF55",
"%.	c #55BFAA",
"&.	c #55BFFF",
"*.	c #55DF00",
"=.	c #55DF55",
"-.	c #55DFAA",
";.	c #55DFFF",
">.	c #55FF00",
",.	c #55FF55",
"'.	c #55FFAA",
").	c #55FFFF",
"!.	c #7F0000",
"~.	c #7F0055",
"{.	c #7F00AA",
"].	c #7F00FF",
"^.	c #7F1F00",
"/.	c #7F1F55",
"(.	c #7F1FAA",
"_.	c #7F1FFF",
":.	c #7F3F55",
"<.	c #7F3FAA",
"[.	c #7F3FFF",
"}.	c #7F5F00",
"|.	c #7F5FAA",
"1.	c #7F7F00",
"2.	c #7F9F00",
"3.	c #7F9FAA",
"4.	c #7F9FFF",
"5.	c #7FBF00",
"6.	c #7FBFAA",
"7.	c #7FBFFF",
"8.	c #7FDF00",
"9.	c #7FDF55",
"0.	c #7FDFAA",
"a.	c #7FDFFF",
"b.	c #7FFF00",
"c.	c #7FFF55",
"d.	c #7FFFAA",
"e.	c #7FFFFF",
"f.	c #AA0000",
"g.	c #AA0055",
"h.	c #AA00AA",
"i.	c #AA00FF",
"j.	c #AA1F00",
"k.	c #AA1F55",
"l.	c #AA1FAA",
"m.	c #AA1FFF",
"n.	c #AA3F55",
"o.	c #AA3FAA",
"p.	c #AA3FFF",
"q.	c #AA5FAA",
"r.	c #AA5FFF",
"s.	c #AA7F00",
"t.	c #AA7F55",
"u.	c #AA7FAA",
"v.	c #AA7FFF",
"w.	c #AA9F00",
"x.	c #AA9F55",
"y.	c #AA9FAA",
"z.	c #AABF00",
"A.	c #AABF55",
"B.	c #AABFFF",
"C.	c #AADF00",
"D.	c #AADF55",
"E.	c #AADFFF",
"F.	c #AAFF00",
"G.	c #AAFF55",
"H.	c #AAFFFF",
"I.	c #D40000",
"J.	c #D40055",
"K.	c #D400AA",
"L.	c #D400FF",
"M.	c #D41F00",
"N.	c #D41F55",
"O.	c #D41FAA",
"P.	c #D41FFF",
"Q.	c #D43F55",
"R.	c #D43FAA",
"S.	c #D43FFF",
"T.	c #D45F55",
"U.	c #D45FAA",
"V.	c #D45FFF",
"W.	c #D47F55",
"X.	c #D47FAA",
"Y.	c #D47FFF",
"Z.	c #D49F00",
"`.	c #D49FFF",
" +	c #D4BF00",
".+	c #D4BF55",
"++	c #D4BFFF",
"@+	c #D4DF00",
"#+	c #D4DF55",
"$+	c #D4DFAA",
"%+	c #D4FF00",
"&+	c #D4FF55",
"*+	c #D4FFFF",
"=+	c #FF0055",
"-+	c #FF00AA",
";+	c #FF1F00",
">+	c #FF1F55",
",+	c #FF1FAA",
"'+	c #FF1FFF",
")+	c #FF3F00",
"!+	c #FF3F55",
"~+	c #FF3FAA",
"{+	c #FF3FFF",
"]+	c #FF5F55",
"^+	c #FF5FAA",
"/+	c #FF5FFF",
"(+	c #FF7F55",
"_+	c #FF7FAA",
":+	c #FF7FFF",
"<+	c #FFFFFF",
"    { { * = { & h               T._     ",
"  { : < g g 6 { & h         ( / / ( | ' ",
"{ c g h g i i g { & h       1 1 1 / / , ",
"{ g i @ < c < i : & h       8 9 8 , , , ",
"* 6 i i y.< g i ~ & h . .   1 9 8 , ^., ",
"= g i i i i i i : h i i . . 1 8 8 , $ ' ",
"{ 6 i i i i i i & h i i . i d 3 _ ,     ",
"  { g i g i i : & h @ g d . . .         ",
"    { : ~ : { & h g ] < 6 $+6 @ .       ",
"      & & & ' & h - ; h g 6 @ 7 .       ",
"        h h h h ; ] ] @ 6 g 6 6 .       ",
"          d 6 $+> - ; < 6 @ 6 $+f       ",
"          d i i g A.; + @ 6 6 6 &       ",
"          d 6 7 @ @ ] + < 6 @ 6 h       ",
"          d i g ^ ] > - + < 6 6 %       ",
"          d *+g [ ^ - > h h < ! (       ",
"          f g 7 *+7 < [ [ 7 } [ $ a     ",
"          . d e d d d d d d d e . 2     ",
"                                    0   ",
"                                    4   "};
