/* XPM */
static char * dspBacklogByCustomer_xpm[] = {
"20 20 230 2",
"  	c None",
". 	c #000000",
"+ 	c #808080",
"@ 	c #C0DCC0",
"# 	c #A6CAF0",
"$ 	c #2A5F55",
"% 	c #551F00",
"& 	c #553F55",
"* 	c #555F00",
"= 	c #555F55",
"- 	c #555FAA",
"; 	c #555FFF",
"> 	c #557F00",
", 	c #557F55",
"' 	c #559F55",
") 	c #7F5F55",
"! 	c #7F5FFF",
"~ 	c #7F7F55",
"{ 	c #7F7FAA",
"] 	c #7F7FFF",
"^ 	c #7F9F55",
"/ 	c #7FBF55",
"( 	c #AA5F00",
"_ 	c #AA5F55",
": 	c #AA9FFF",
"< 	c #AABFAA",
"[ 	c #AADFAA",
"} 	c #AAFFAA",
"| 	c #D45F55",
"1 	c #D47F00",
"2 	c #D47F55",
"3 	c #D49F55",
"4 	c #D49FAA",
"5 	c #D4DFFF",
"6 	c #D4FFAA",
"7 	c #FF9F55",
"8 	c #FFBF55",
"9 	c #FFDF55",
"0 	c #FFDFAA",
"a 	c #CCCCFF",
"b 	c #2A1F00",
"c 	c #2A1F55",
"d 	c #2A3F00",
"e 	c #2A3F55",
"f 	c #FFFBF0",
"g 	c #A0A0A4",
"h 	c #FFFFFF",
"i 	c #800000",
"j 	c #008000",
"k 	c #808000",
"l 	c #000080",
"m 	c #800080",
"n 	c #008080",
"o 	c #2A3FAA",
"p 	c #2A3FFF",
"q 	c #2A5F00",
"r 	c #2A5FAA",
"s 	c #2A5FFF",
"t 	c #2A7F00",
"u 	c #2A7F55",
"v 	c #2A7FAA",
"w 	c #2A7FFF",
"x 	c #2A9F00",
"y 	c #2A9F55",
"z 	c #2A9FAA",
"A 	c #2A9FFF",
"B 	c #2ABF00",
"C 	c #2ABF55",
"D 	c #2ABFAA",
"E 	c #2ABFFF",
"F 	c #2ADF00",
"G 	c #2ADF55",
"H 	c #2ADFAA",
"I 	c #2ADFFF",
"J 	c #2AFF00",
"K 	c #2AFF55",
"L 	c #2AFFAA",
"M 	c #2AFFFF",
"N 	c #550000",
"O 	c #550055",
"P 	c #5500AA",
"Q 	c #5500FF",
"R 	c #551F55",
"S 	c #551FAA",
"T 	c #551FFF",
"U 	c #553F00",
"V 	c #553FAA",
"W 	c #553FFF",
"X 	c #557FAA",
"Y 	c #557FFF",
"Z 	c #559F00",
"` 	c #559FAA",
" .	c #559FFF",
"..	c #55BF00",
"+.	c #55BF55",
"@.	c #55BFAA",
"#.	c #55BFFF",
"$.	c #55DF00",
"%.	c #55DF55",
"&.	c #55DFAA",
"*.	c #55DFFF",
"=.	c #55FF00",
"-.	c #55FF55",
";.	c #55FFAA",
">.	c #55FFFF",
",.	c #7F0000",
"'.	c #7F0055",
").	c #7F00AA",
"!.	c #7F00FF",
"~.	c #7F1F00",
"{.	c #7F1F55",
"].	c #7F1FAA",
"^.	c #7F1FFF",
"/.	c #7F3F00",
"(.	c #7F3F55",
"_.	c #7F3FAA",
":.	c #7F3FFF",
"<.	c #7F5F00",
"[.	c #7F5FAA",
"}.	c #7F7F00",
"|.	c #7F9F00",
"1.	c #7F9FAA",
"2.	c #7F9FFF",
"3.	c #7FBF00",
"4.	c #7FBFAA",
"5.	c #7FBFFF",
"6.	c #7FDF00",
"7.	c #7FDF55",
"8.	c #7FDFAA",
"9.	c #7FDFFF",
"0.	c #7FFF00",
"a.	c #7FFF55",
"b.	c #7FFFAA",
"c.	c #7FFFFF",
"d.	c #AA0000",
"e.	c #AA0055",
"f.	c #AA00AA",
"g.	c #AA00FF",
"h.	c #AA1F00",
"i.	c #AA1F55",
"j.	c #AA1FAA",
"k.	c #AA1FFF",
"l.	c #AA3F00",
"m.	c #AA3F55",
"n.	c #AA3FAA",
"o.	c #AA3FFF",
"p.	c #AA5FAA",
"q.	c #AA5FFF",
"r.	c #AA7F00",
"s.	c #AA7F55",
"t.	c #AA7FAA",
"u.	c #AA7FFF",
"v.	c #AA9F00",
"w.	c #AA9F55",
"x.	c #AA9FAA",
"y.	c #AABF00",
"z.	c #AABF55",
"A.	c #AABFFF",
"B.	c #AADF00",
"C.	c #AADF55",
"D.	c #AADFFF",
"E.	c #AAFF00",
"F.	c #AAFF55",
"G.	c #AAFFFF",
"H.	c #D40000",
"I.	c #D40055",
"J.	c #D400AA",
"K.	c #D400FF",
"L.	c #D41F00",
"M.	c #D41F55",
"N.	c #D41FAA",
"O.	c #D41FFF",
"P.	c #D43F00",
"Q.	c #D43F55",
"R.	c #D43FAA",
"S.	c #D43FFF",
"T.	c #D45F00",
"U.	c #D45FAA",
"V.	c #D45FFF",
"W.	c #D47FAA",
"X.	c #D47FFF",
"Y.	c #D49F00",
"Z.	c #D49FFF",
"`.	c #D4BF00",
" +	c #D4BF55",
".+	c #D4BFAA",
"++	c #D4BFFF",
"@+	c #D4DF00",
"#+	c #D4DF55",
"$+	c #D4DFAA",
"%+	c #D4FF00",
"&+	c #D4FF55",
"*+	c #D4FFFF",
"=+	c #FF0055",
"-+	c #FF00AA",
";+	c #FF1F00",
">+	c #FF1F55",
",+	c #FF1FAA",
"'+	c #FF1FFF",
")+	c #FF3F00",
"!+	c #FF3F55",
"~+	c #FF3FAA",
"{+	c #FF3FFF",
"]+	c #FF5F00",
"^+	c #FF5F55",
"/+	c #FF5FAA",
"(+	c #FF5FFF",
"_+	c #FF7F00",
":+	c #FF7F55",
"<+	c #FF7FAA",
"[+	c #FF7FFF",
"}+	c #FF9F00",
"|+	c #FF9FAA",
"1+	c #FF9FFF",
"2+	c #FFBF00",
"3+	c #FFBFAA",
"4+	c #FFBFFF",
"5+	c #FFDF00",
"6+	c #FFDFFF",
"7+	c #FFFF55",
"8+	c #FFFFAA",
"9+	c #FFCCFF",
"0+	c #33FFFF",
"a+	c #66FFFF",
"b+	c #99FFFF",
"c+	c #CCFFFF",
"d+	c #007F00",
"e+	c #007F55",
"f+	c #007FAA",
"g+	c #FFFFFF",
"    ] ] - ; ] = g             + + +     ",
"  ] : < 6+f 5 ] = g         & ~ + ) =   ",
"] a f g f h h f ] = g     ~ _ 2 _ & & + ",
"] f h @ < a < h : = g     ) 7 8 8 _ d e ",
"- 5 h h g < 6+h { = g . . ) 2 3 3 2 b e ",
"; f h h h h h h : g h h . d | 2 2 ) c   ",
"] 5 h h h h h h = g h h . < ~ _ ) & +   ",
"  ] f h f h h : = g @ f e Z ^ < ~ ' Z   ",
"    ] : { : ] = g f ^ < ^ , ^ < ^ ^ ,   ",
"      = = = ) = g > , g ^ = , , , , =   ",
"        g g g g , ^ ^ @ *++ , ~ d ~     ",
"          b 5 $+' > , x.5 5 5 5 d       ",
"          b h h f z., + @ 5 @ 5 =       ",
"          b 5 6 @ @ ^ + @ 5 5 5 g       ",
"          b h f / ^ ' > + < @ 5 *       ",
"          b *+f [ / > ' g g < ~ (       ",
"          e f 6 *+6 < [ [ } 6 [ % 9     ",
"          . b c b b b b b b b c . 1     ",
"                                    8   ",
"                                    4   "};
