/* XPM */
static char * dspEvents_xpm[] = {
"20 20 180 2",
"  	c None",
". 	c #000000",
"+ 	c #808000",
"@ 	c #808080",
"# 	c #C0DCC0",
"$ 	c #553F00",
"% 	c #553F55",
"& 	c #555F00",
"* 	c #555F55",
"= 	c #7F5F00",
"- 	c #7F7F00",
"; 	c #7F7F55",
"> 	c #AA5F55",
", 	c #AA7F00",
"' 	c #AA7F55",
") 	c #AA9F00",
"! 	c #AA9F55",
"~ 	c #AA9FAA",
"{ 	c #AABFAA",
"] 	c #D47F00",
"^ 	c #D49F00",
"/ 	c #D49F55",
"( 	c #D49FAA",
"_ 	c #D4BF00",
": 	c #D4BFAA",
"< 	c #D4DF55",
"[ 	c #D4DFAA",
"} 	c #D4DFFF",
"| 	c #FFBF55",
"1 	c #FFDF00",
"2 	c #FFDF55",
"3 	c #FFDFAA",
"4 	c #FFFF55",
"5 	c #2A1F00",
"6 	c #2A1F55",
"7 	c #2A3F55",
"8 	c #FFFBF0",
"9 	c #A0A0A4",
"0 	c #FFFFFF",
"a 	c #800000",
"b 	c #008000",
"c 	c #000080",
"d 	c #800080",
"e 	c #008080",
"f 	c #A6CAF0",
"g 	c #2A3FAA",
"h 	c #2A3FFF",
"i 	c #2A5F00",
"j 	c #2A5F55",
"k 	c #2A5FAA",
"l 	c #2A5FFF",
"m 	c #2A7F00",
"n 	c #2A7F55",
"o 	c #2A7FAA",
"p 	c #2A7FFF",
"q 	c #2A9F00",
"r 	c #2A9F55",
"s 	c #2A9FAA",
"t 	c #2A9FFF",
"u 	c #2ABF00",
"v 	c #2ABF55",
"w 	c #2ABFAA",
"x 	c #2ABFFF",
"y 	c #2ADF00",
"z 	c #2ADF55",
"A 	c #2ADFAA",
"B 	c #2ADFFF",
"C 	c #2AFF00",
"D 	c #2AFF55",
"E 	c #2AFFAA",
"F 	c #2AFFFF",
"G 	c #550000",
"H 	c #550055",
"I 	c #5500AA",
"J 	c #5500FF",
"K 	c #551F00",
"L 	c #551F55",
"M 	c #551FAA",
"N 	c #551FFF",
"O 	c #553FAA",
"P 	c #553FFF",
"Q 	c #555FAA",
"R 	c #555FFF",
"S 	c #557F00",
"T 	c #557F55",
"U 	c #557FAA",
"V 	c #557FFF",
"W 	c #559F00",
"X 	c #559F55",
"Y 	c #559FAA",
"Z 	c #559FFF",
"` 	c #55BF00",
" .	c #55BF55",
"..	c #55BFAA",
"+.	c #55BFFF",
"@.	c #55DF00",
"#.	c #55DF55",
"$.	c #55DFAA",
"%.	c #55DFFF",
"&.	c #55FF00",
"*.	c #55FF55",
"=.	c #55FFAA",
"-.	c #55FFFF",
";.	c #7F0000",
">.	c #7F0055",
",.	c #7F00AA",
"'.	c #7F00FF",
").	c #7F1F00",
"!.	c #7F1F55",
"~.	c #7F1FAA",
"{.	c #7F1FFF",
"].	c #7F3F00",
"^.	c #7F3F55",
"/.	c #7F3FAA",
"(.	c #7F3FFF",
"_.	c #7F5F55",
":.	c #7F5FAA",
"<.	c #7F5FFF",
"[.	c #7F7FAA",
"}.	c #7F7FFF",
"|.	c #7F9F00",
"1.	c #7F9F55",
"2.	c #7F9FAA",
"3.	c #7F9FFF",
"4.	c #7FBF00",
"5.	c #7FBF55",
"6.	c #7FBFAA",
"7.	c #7FBFFF",
"8.	c #7FDF00",
"9.	c #7FDF55",
"0.	c #7FDFAA",
"a.	c #7FDFFF",
"b.	c #7FFF00",
"c.	c #7FFF55",
"d.	c #7FFFAA",
"e.	c #7FFFFF",
"f.	c #AA0000",
"g.	c #AA0055",
"h.	c #AA00AA",
"i.	c #AA00FF",
"j.	c #AA1F00",
"k.	c #AA1F55",
"l.	c #AA1FAA",
"m.	c #AA1FFF",
"n.	c #AA3F00",
"o.	c #AA3F55",
"p.	c #AA3FAA",
"q.	c #AA3FFF",
"r.	c #AA5F00",
"s.	c #AA5FAA",
"t.	c #AA5FFF",
"u.	c #AA7FAA",
"v.	c #AA7FFF",
"w.	c #AA9FFF",
"x.	c #AABF00",
"y.	c #AABF55",
"z.	c #AABFFF",
"A.	c #AADF00",
"B.	c #AADF55",
"C.	c #AADFAA",
"D.	c #AADFFF",
"E.	c #AAFF00",
"F.	c #AAFF55",
"G.	c #AAFFAA",
"H.	c #AAFFFF",
"I.	c #D40000",
"J.	c #D40055",
"K.	c #D400AA",
"L.	c #D400FF",
"M.	c #D41F00",
"N.	c #D41F55",
"O.	c #D41FAA",
"P.	c #D41FFF",
"Q.	c #D43F00",
"R.	c #D43F55",
"S.	c #D43FAA",
"T.	c #D43FFF",
"U.	c #D45F00",
"V.	c #D45F55",
"W.	c #FFFFFF",
"                                        ",
"                  . . *                 ",
"                5 . 5 . @               ",
"              5 . , , . . @             ",
"            6 5 y.1 < - . 5 9           ",
"          7 5 ) < 4 < ) = . 6 9         ",
"        6 5 |.4 < % * < _ $ . 5 9       ",
"      5 . ) < < 4 * % < < ^ $ . 6 {     ",
"    7 5 ) < 4 4 4 % * < [ [ ) $ . 6 {   ",
"  * . + < < 4 1 4 * * [ 8 [ [ ) $ . *   ",
"  . . * 1 < 4 4 4 < < # } 8 8 ~ 5 5 *   ",
"      . $ < < 1 4 $ * ~ } } # # 7 _.    ",
"      * . & 1 < 4 * * @ # } } } [.#     ",
"          5 & < < < 4 ; # } # } #       ",
"          * . & 4 < ! ) @ { } }         ",
"              . = _ ^ $ 6 ; 9 ' /       ",
"              * . $ $ . 7 {     > 2     ",
"                7 . . 5 ~         ]     ",
"                  . . @             |   ",
"                                    (   "};
