/* XPM */
static char * dspInventoryAvailabilityByPlannerCode_xpm[] = {
"20 20 232 2",
"  	c None",
". 	c #000000",
"+ 	c #808000",
"@ 	c #008080",
"# 	c #808080",
"$ 	c #C0DCC0",
"% 	c #2A5FAA",
"& 	c #2A7FAA",
"* 	c #551F00",
"= 	c #553F00",
"- 	c #555F00",
"; 	c #555F55",
"> 	c #557FAA",
", 	c #559FAA",
"' 	c #7F1F00",
") 	c #7F3F00",
"! 	c #7F3F55",
"~ 	c #7F5F00",
"{ 	c #7F5F55",
"] 	c #7F7F00",
"^ 	c #7F7F55",
"/ 	c #7F7FAA",
"( 	c #7F9FAA",
"_ 	c #7FBFAA",
": 	c #AA3F00",
"< 	c #AA5F00",
"[ 	c #AA5F55",
"} 	c #AA7F00",
"| 	c #AA7F55",
"1 	c #AA9F00",
"2 	c #AA9F55",
"3 	c #AA9FAA",
"4 	c #AABF00",
"5 	c #AABFAA",
"6 	c #D45F00",
"7 	c #D47F00",
"8 	c #D47F55",
"9 	c #D49F00",
"0 	c #D49F55",
"a 	c #D49FAA",
"b 	c #D4BF00",
"c 	c #D4BF55",
"d 	c #D4BFAA",
"e 	c #D4DF00",
"f 	c #D4DFFF",
"g 	c #FF5F00",
"h 	c #FF7F00",
"i 	c #FFBFAA",
"j 	c #FFDF00",
"k 	c #007FAA",
"l 	c #2A0000",
"m 	c #2A1F00",
"n 	c #2A3F55",
"o 	c #FFFBF0",
"p 	c #A0A0A4",
"q 	c #FFFF00",
"r 	c #FFFFFF",
"s 	c #800000",
"t 	c #008000",
"u 	c #000080",
"v 	c #800080",
"w 	c #A6CAF0",
"x 	c #2A3FAA",
"y 	c #2A3FFF",
"z 	c #2A5F00",
"A 	c #2A5F55",
"B 	c #2A5FFF",
"C 	c #2A7F00",
"D 	c #2A7F55",
"E 	c #2A7FFF",
"F 	c #2A9F00",
"G 	c #2A9F55",
"H 	c #2A9FAA",
"I 	c #2A9FFF",
"J 	c #2ABF00",
"K 	c #2ABF55",
"L 	c #2ABFAA",
"M 	c #2ABFFF",
"N 	c #2ADF00",
"O 	c #2ADF55",
"P 	c #2ADFAA",
"Q 	c #2ADFFF",
"R 	c #2AFF00",
"S 	c #2AFF55",
"T 	c #2AFFAA",
"U 	c #2AFFFF",
"V 	c #550000",
"W 	c #550055",
"X 	c #5500AA",
"Y 	c #5500FF",
"Z 	c #551F55",
"` 	c #551FAA",
" .	c #551FFF",
"..	c #553F55",
"+.	c #553FAA",
"@.	c #553FFF",
"#.	c #555FAA",
"$.	c #555FFF",
"%.	c #557F00",
"&.	c #557F55",
"*.	c #557FFF",
"=.	c #559F00",
"-.	c #559F55",
";.	c #559FFF",
">.	c #55BF00",
",.	c #55BF55",
"'.	c #55BFAA",
").	c #55BFFF",
"!.	c #55DF00",
"~.	c #55DF55",
"{.	c #55DFAA",
"].	c #55DFFF",
"^.	c #55FF00",
"/.	c #55FF55",
"(.	c #55FFAA",
"_.	c #55FFFF",
":.	c #7F0000",
"<.	c #7F0055",
"[.	c #7F00AA",
"}.	c #7F00FF",
"|.	c #7F1F55",
"1.	c #7F1FAA",
"2.	c #7F1FFF",
"3.	c #7F3FAA",
"4.	c #7F3FFF",
"5.	c #7F5FAA",
"6.	c #7F5FFF",
"7.	c #7F7FFF",
"8.	c #7F9F00",
"9.	c #7F9F55",
"0.	c #7F9FFF",
"a.	c #7FBF00",
"b.	c #7FBF55",
"c.	c #7FBFFF",
"d.	c #7FDF00",
"e.	c #7FDF55",
"f.	c #7FDFAA",
"g.	c #7FDFFF",
"h.	c #7FFF00",
"i.	c #7FFF55",
"j.	c #7FFFAA",
"k.	c #7FFFFF",
"l.	c #AA0000",
"m.	c #AA0055",
"n.	c #AA00AA",
"o.	c #AA00FF",
"p.	c #AA1F00",
"q.	c #AA1F55",
"r.	c #AA1FAA",
"s.	c #AA1FFF",
"t.	c #AA3F55",
"u.	c #AA3FAA",
"v.	c #AA3FFF",
"w.	c #AA5FAA",
"x.	c #AA5FFF",
"y.	c #AA7FAA",
"z.	c #AA7FFF",
"A.	c #AA9FFF",
"B.	c #AABF55",
"C.	c #AABFFF",
"D.	c #AADF00",
"E.	c #AADF55",
"F.	c #AADFAA",
"G.	c #AADFFF",
"H.	c #AAFF00",
"I.	c #AAFF55",
"J.	c #AAFFAA",
"K.	c #AAFFFF",
"L.	c #D40000",
"M.	c #D40055",
"N.	c #D400AA",
"O.	c #D400FF",
"P.	c #D41F00",
"Q.	c #D41F55",
"R.	c #D41FAA",
"S.	c #D41FFF",
"T.	c #D43F00",
"U.	c #D43F55",
"V.	c #D43FAA",
"W.	c #D43FFF",
"X.	c #D45F55",
"Y.	c #D45FAA",
"Z.	c #D45FFF",
"`.	c #D47FAA",
" +	c #D47FFF",
".+	c #D49FFF",
"++	c #D4BFFF",
"@+	c #D4DF55",
"#+	c #D4DFAA",
"$+	c #D4FF00",
"%+	c #D4FF55",
"&+	c #D4FFAA",
"*+	c #D4FFFF",
"=+	c #FF0055",
"-+	c #FF00AA",
";+	c #FF1F00",
">+	c #FF1F55",
",+	c #FF1FAA",
"'+	c #FF1FFF",
")+	c #FF3F00",
"!+	c #FF3F55",
"~+	c #FF3FAA",
"{+	c #FF3FFF",
"]+	c #FF5F55",
"^+	c #FF5FAA",
"/+	c #FF5FFF",
"(+	c #FF7F55",
"_+	c #FF7FAA",
":+	c #FF7FFF",
"<+	c #FF9F00",
"[+	c #FF9F55",
"}+	c #FF9FAA",
"|+	c #FF9FFF",
"1+	c #FFBF00",
"2+	c #FFBF55",
"3+	c #FFBFFF",
"4+	c #FFDF55",
"5+	c #FFDFAA",
"6+	c #FFDFFF",
"7+	c #FFFF55",
"8+	c #FFFFAA",
"9+	c #CCCCFF",
"0+	c #FFCCFF",
"a+	c #33FFFF",
"b+	c #66FFFF",
"c+	c #99FFFF",
"d+	c #CCFFFF",
"e+	c #007F00",
"f+	c #007F55",
"g+	c #007FFF",
"h+	c #009F00",
"i+	c #FFFFFF",
"                  . 4 q q q q q 1 q 4 . ",
"        2 )       . ~ ] q . e q . q 4 . ",
"    | ~ ~ < ~ ) { . - . 1 . 1 4 . 1 1 . ",
"| ~ < < < < < } ~ . - . = . - - . = ] . ",
"~ 2+c } < ~ < n c . m . . . . . . . . . ",
"[ c 8 c 0 } ~ n { r r < * = r ; n       ",
"~ 0 < 0 0 | * ; . . r * ) * r .         ",
"[ 0 } 0 } } * * { ; . . . . .           ",
"{ 9 0 | | } * m . ) ; { ; p > k ,       ",
") 0 0 7 9 < = m . ~ m   _ 6+f _ g+%     ",
"  ; } 0 0 < ' m . * #   $ *+o f ( A     ",
"      { } | = *         3 f f f $ %     ",
"          = p       | [ # f $ f f # 2   ",
"                  | 6 : > 5 f f $ 5 1 ] ",
"                  6 g 6 & ( 5 f f ^ + ~ ",
"                  6 h g 6 ! 2 c } 7 ~ ~ ",
"                  6 h h 6 ) b q b ) 7 - ",
"                  8 6 g 6 ' 9 j j ~ < + ",
"                      8 ) { 2   1 ~ { 2+",
"                                        "};
