/* XPM */
static char * dspInventoryHistoryByItem_xpm[] = {
"20 20 175 2",
"  	c None",
". 	c #000000",
"+ 	c #808000",
"@ 	c #008080",
"# 	c #808080",
"$ 	c #C0DCC0",
"% 	c #A6CAF0",
"& 	c #2A7FAA",
"* 	c #2A9FAA",
"= 	c #2A9FFF",
"- 	c #551F00",
"; 	c #553F00",
"> 	c #553F55",
", 	c #555F00",
"' 	c #555F55",
") 	c #7F1F00",
"! 	c #7F3F00",
"~ 	c #7F5F00",
"{ 	c #7F5F55",
"] 	c #7F7F55",
"^ 	c #AA3F00",
"/ 	c #AA5F00",
"( 	c #AA5F55",
"_ 	c #AA7F00",
": 	c #AA7F55",
"< 	c #AA9F00",
"[ 	c #AA9F55",
"} 	c #AA9FAA",
"| 	c #AABFAA",
"1 	c #D43F00",
"2 	c #D45F00",
"3 	c #D47F00",
"4 	c #D47F55",
"5 	c #D49F00",
"6 	c #D49F55",
"7 	c #D49FAA",
"8 	c #D4BF00",
"9 	c #D4BF55",
"0 	c #D4BFAA",
"a 	c #D4DFAA",
"b 	c #D4DFFF",
"c 	c #FF5F00",
"d 	c #FF7F00",
"e 	c #FFBF55",
"f 	c #FFDF00",
"g 	c #FFDF55",
"h 	c #FFDFAA",
"i 	c #007FAA",
"j 	c #009FFF",
"k 	c #00BFFF",
"l 	c #2A1F00",
"m 	c #2A3F55",
"n 	c #FFFBF0",
"o 	c #A0A0A4",
"p 	c #FFFF00",
"q 	c #FFFFFF",
"r 	c #800000",
"s 	c #008000",
"t 	c #000080",
"u 	c #800080",
"v 	c #2A3FAA",
"w 	c #2A3FFF",
"x 	c #2A5F00",
"y 	c #2A5F55",
"z 	c #2A5FAA",
"A 	c #2A5FFF",
"B 	c #2A7F00",
"C 	c #2A7F55",
"D 	c #2A7FFF",
"E 	c #2A9F00",
"F 	c #2A9F55",
"G 	c #2ABF00",
"H 	c #2ABF55",
"I 	c #2ABFAA",
"J 	c #2ABFFF",
"K 	c #2ADF00",
"L 	c #2ADF55",
"M 	c #2ADFAA",
"N 	c #2ADFFF",
"O 	c #2AFF00",
"P 	c #2AFF55",
"Q 	c #2AFFAA",
"R 	c #2AFFFF",
"S 	c #550000",
"T 	c #550055",
"U 	c #5500AA",
"V 	c #5500FF",
"W 	c #551F55",
"X 	c #551FAA",
"Y 	c #551FFF",
"Z 	c #553FAA",
"` 	c #553FFF",
" .	c #555FAA",
"..	c #555FFF",
"+.	c #557F00",
"@.	c #557F55",
"#.	c #557FAA",
"$.	c #557FFF",
"%.	c #559F00",
"&.	c #559F55",
"*.	c #559FAA",
"=.	c #559FFF",
"-.	c #55BF00",
";.	c #55BF55",
">.	c #55BFAA",
",.	c #55BFFF",
"'.	c #55DF00",
").	c #55DF55",
"!.	c #55DFAA",
"~.	c #55DFFF",
"{.	c #55FF00",
"].	c #55FF55",
"^.	c #55FFAA",
"/.	c #55FFFF",
"(.	c #7F0000",
"_.	c #7F0055",
":.	c #7F00AA",
"<.	c #7F00FF",
"[.	c #7F1F55",
"}.	c #7F1FAA",
"|.	c #7F1FFF",
"1.	c #7F3F55",
"2.	c #7F3FAA",
"3.	c #7F3FFF",
"4.	c #7F5FAA",
"5.	c #7F5FFF",
"6.	c #7F7F00",
"7.	c #7F7FAA",
"8.	c #7F7FFF",
"9.	c #7F9F00",
"0.	c #7F9F55",
"a.	c #7F9FAA",
"b.	c #7F9FFF",
"c.	c #7FBF00",
"d.	c #7FBF55",
"e.	c #7FBFAA",
"f.	c #7FBFFF",
"g.	c #7FDF00",
"h.	c #7FDF55",
"i.	c #7FDFAA",
"j.	c #7FDFFF",
"k.	c #7FFF00",
"l.	c #7FFF55",
"m.	c #7FFFAA",
"n.	c #7FFFFF",
"o.	c #AA0000",
"p.	c #AA0055",
"q.	c #AA00AA",
"r.	c #AA00FF",
"s.	c #AA1F00",
"t.	c #AA1F55",
"u.	c #AA1FAA",
"v.	c #AA1FFF",
"w.	c #AA3F55",
"x.	c #AA3FAA",
"y.	c #AA3FFF",
"z.	c #AA5FAA",
"A.	c #AA5FFF",
"B.	c #AA7FAA",
"C.	c #AA7FFF",
"D.	c #AA9FFF",
"E.	c #AABF00",
"F.	c #AABF55",
"G.	c #AABFFF",
"H.	c #AADF00",
"I.	c #AADF55",
"J.	c #AADFAA",
"K.	c #AADFFF",
"L.	c #AAFF00",
"M.	c #AAFF55",
"N.	c #AAFFAA",
"O.	c #AAFFFF",
"P.	c #D40000",
"Q.	c #D40055",
"R.	c #FFFFFF",
"                                4 (     ",
"                            / ^ ^ ^ 2 { ",
"                & i &       2 2 2 ^ ^ ! ",
"              * i i i       c d c ! ) ! ",
"              = k i v       2 d c ! ! ! ",
"            6 j k i m [     2 c c ! - { ",
"            ^ & j i m _ < [   6 ( !     ",
"        ; 2 c { & & ' < _ ,             ",
"    ; > 6 c d 2 ) 8 p < : ] l l         ",
"; > 6 6 6 2 d 2 - 5 f 0 n b 0 : l l     ",
"; 0 a a 6 4 4 ^ ! _ 6 $ b n b 0 > .     ",
"; 0 6 0 a a 6 6 6 6 : } b $ b $ n q     ",
"> 9 0 0 9 7 a b 6 6 [ # b b $ b b q     ",
"; a 0 9 0 0 9 7 a 6 > ] | b b b | .     ",
"l . 9 0 0 9 0 0 0 ; q q o $ $ b , . o   ",
"o o l . 9 0 9 0 9 > q q ' ] > ; 4 o     ",
"    o o l . } 9 0 ; > ; . . o o ! g     ",
"        o o l . 6 ' . . o o o     3     ",
"            o o l . o o             e   ",
"                                    7   "};
