/* XPM */
static char * dspInventoryAvailabilityByItem_xpm[] = {
"20 20 24 1",
" 	c None",
".	c #000000",
"+	c #808080",
"@	c #C0DCC0",
"#	c #551F00",
"$	c #555F55",
"%	c #7F3F00",
"&	c #7F5F00",
"*	c #7F5F55",
"=	c #AA3F00",
"-	c #AA5F00",
";	c #AA5F55",
">	c #AA7F00",
",	c #AA7F55",
"'	c #D45F00",
")	c #D49F55",
"!	c #D4BF55",
"~	c #D4DFFF",
"{	c #FF5F00",
"]	c #FF7F00",
"^	c #2A1F00",
"/	c #FFFBF0",
"(	c #FFFFFF",
"_	c #FFFFFF",
"                ;;  ",
"    ,&   -&-& -=='=;",
"  ,&&--&-!!)!-'''==%",
",&----^!)(--#!{]{%%%",
"-!!,&>^*((-#%(']{%%%",
"*!))!>$..(#%#('{{%#*",
"-)-)),#*$..... );%  ",
"*)>)>>##^$*$*       ",
"-)),,>#^.%^  @+$+   ",
"%))>)-%^.&^ @~~@+$  ",
" &>))-#^.#+ @~~~+$  ",
"   *>>%^    @~@~~$  ",
"     #)   ,;+~~@~+) ",
"         ,'=+@~~~@>&",
"         '{-$+@@~*>&",
"         ']{'*,!>>&&",
"         ']]'%!!!%>&",
"         )'{'%)!!&>>",
"           ,%&) >&*!",
"                    "};
