/* XPM */
static char * dspPricesByItem_xpm[] = {
"20 20 230 2",
"  	c None",
". 	c #808080",
"+ 	c #C0DCC0",
"@ 	c #551F00",
"# 	c #553F00",
"$ 	c #553F55",
"% 	c #555F00",
"& 	c #555F55",
"* 	c #7F3F00",
"= 	c #7F5F55",
"- 	c #7F7F55",
"; 	c #7F9F55",
"> 	c #AA3F00",
", 	c #AA5F00",
"' 	c #AA5F55",
") 	c #AA9F55",
"! 	c #AA9FAA",
"~ 	c #AABF55",
"{ 	c #AABFAA",
"] 	c #D43F00",
"^ 	c #D45F00",
"/ 	c #D47F00",
"( 	c #D49F55",
"_ 	c #D49FAA",
": 	c #D4BFAA",
"< 	c #D4DFAA",
"[ 	c #D4DFFF",
"} 	c #FF5F00",
"| 	c #FF7F00",
"1 	c #FFBF55",
"2 	c #FFDF55",
"3 	c #FFDFAA",
"4 	c #FFFFAA",
"5 	c #2A1F00",
"6 	c #2A3F00",
"7 	c #2A3F55",
"8 	c #FFFBF0",
"9 	c #A0A0A4",
"0 	c #FFFFFF",
"a 	c #000000",
"b 	c #800000",
"c 	c #008000",
"d 	c #808000",
"e 	c #000080",
"f 	c #800080",
"g 	c #008080",
"h 	c #A6CAF0",
"i 	c #2A3FAA",
"j 	c #2A3FFF",
"k 	c #2A5F00",
"l 	c #2A5F55",
"m 	c #2A5FAA",
"n 	c #2A5FFF",
"o 	c #2A7F00",
"p 	c #2A7F55",
"q 	c #2A7FAA",
"r 	c #2A7FFF",
"s 	c #2A9F00",
"t 	c #2A9F55",
"u 	c #2A9FAA",
"v 	c #2A9FFF",
"w 	c #2ABF00",
"x 	c #2ABF55",
"y 	c #2ABFAA",
"z 	c #2ABFFF",
"A 	c #2ADF00",
"B 	c #2ADF55",
"C 	c #2ADFAA",
"D 	c #2ADFFF",
"E 	c #2AFF00",
"F 	c #2AFF55",
"G 	c #2AFFAA",
"H 	c #2AFFFF",
"I 	c #550000",
"J 	c #550055",
"K 	c #5500AA",
"L 	c #5500FF",
"M 	c #551F55",
"N 	c #551FAA",
"O 	c #551FFF",
"P 	c #553FAA",
"Q 	c #553FFF",
"R 	c #555FAA",
"S 	c #555FFF",
"T 	c #557F00",
"U 	c #557F55",
"V 	c #557FAA",
"W 	c #557FFF",
"X 	c #559F00",
"Y 	c #559F55",
"Z 	c #559FAA",
"` 	c #559FFF",
" .	c #55BF00",
"..	c #55BF55",
"+.	c #55BFAA",
"@.	c #55BFFF",
"#.	c #55DF00",
"$.	c #55DF55",
"%.	c #55DFAA",
"&.	c #55DFFF",
"*.	c #55FF00",
"=.	c #55FF55",
"-.	c #55FFAA",
";.	c #55FFFF",
">.	c #7F0000",
",.	c #7F0055",
"'.	c #7F00AA",
").	c #7F00FF",
"!.	c #7F1F00",
"~.	c #7F1F55",
"{.	c #7F1FAA",
"].	c #7F1FFF",
"^.	c #7F3F55",
"/.	c #7F3FAA",
"(.	c #7F3FFF",
"_.	c #7F5F00",
":.	c #7F5FAA",
"<.	c #7F5FFF",
"[.	c #7F7F00",
"}.	c #7F7FAA",
"|.	c #7F7FFF",
"1.	c #7F9F00",
"2.	c #7F9FAA",
"3.	c #7F9FFF",
"4.	c #7FBF00",
"5.	c #7FBF55",
"6.	c #7FBFAA",
"7.	c #7FBFFF",
"8.	c #7FDF00",
"9.	c #7FDF55",
"0.	c #7FDFAA",
"a.	c #7FDFFF",
"b.	c #7FFF00",
"c.	c #7FFF55",
"d.	c #7FFFAA",
"e.	c #7FFFFF",
"f.	c #AA0000",
"g.	c #AA0055",
"h.	c #AA00AA",
"i.	c #AA00FF",
"j.	c #AA1F00",
"k.	c #AA1F55",
"l.	c #AA1FAA",
"m.	c #AA1FFF",
"n.	c #AA3F55",
"o.	c #AA3FAA",
"p.	c #AA3FFF",
"q.	c #AA5FAA",
"r.	c #AA5FFF",
"s.	c #AA7F00",
"t.	c #AA7F55",
"u.	c #AA7FAA",
"v.	c #AA7FFF",
"w.	c #AA9F00",
"x.	c #AA9FFF",
"y.	c #AABF00",
"z.	c #AABFFF",
"A.	c #AADF00",
"B.	c #AADF55",
"C.	c #AADFAA",
"D.	c #AADFFF",
"E.	c #AAFF00",
"F.	c #AAFF55",
"G.	c #AAFFAA",
"H.	c #AAFFFF",
"I.	c #D40000",
"J.	c #D40055",
"K.	c #D400AA",
"L.	c #D400FF",
"M.	c #D41F00",
"N.	c #D41F55",
"O.	c #D41FAA",
"P.	c #D41FFF",
"Q.	c #D43F55",
"R.	c #D43FAA",
"S.	c #D43FFF",
"T.	c #D45F55",
"U.	c #D45FAA",
"V.	c #D45FFF",
"W.	c #D47F55",
"X.	c #D47FAA",
"Y.	c #D47FFF",
"Z.	c #D49F00",
"`.	c #D49FFF",
" +	c #D4BF00",
".+	c #D4BF55",
"++	c #D4BFFF",
"@+	c #D4DF00",
"#+	c #D4DF55",
"$+	c #D4FF00",
"%+	c #D4FF55",
"&+	c #D4FFAA",
"*+	c #D4FFFF",
"=+	c #FF0055",
"-+	c #FF00AA",
";+	c #FF1F00",
">+	c #FF1F55",
",+	c #FF1FAA",
"'+	c #FF1FFF",
")+	c #FF3F00",
"!+	c #FF3F55",
"~+	c #FF3FAA",
"{+	c #FF3FFF",
"]+	c #FF5F55",
"^+	c #FF5FAA",
"/+	c #FF5FFF",
"(+	c #FF7F55",
"_+	c #FF7FAA",
":+	c #FF7FFF",
"<+	c #FF9F00",
"[+	c #FF9F55",
"}+	c #FF9FAA",
"|+	c #FF9FFF",
"1+	c #FFBF00",
"2+	c #FFBFAA",
"3+	c #FFBFFF",
"4+	c #FFDF00",
"5+	c #FFDFFF",
"6+	c #FFFF55",
"7+	c #CCCCFF",
"8+	c #FFCCFF",
"9+	c #33FFFF",
"0+	c #66FFFF",
"a+	c #99FFFF",
"b+	c #CCFFFF",
"c+	c #007F00",
"d+	c #007F55",
"e+	c #007FAA",
"f+	c #007FFF",
"g+	c #FFFFFF",
"                                T.'     ",
"                    { 9     , > > , ] = ",
"                    & 5 & ) ^ ^ ^ > > * ",
"                    & 5 & & } | } * * * ",
"                    & 7 7 & ^ | } * !.* ",
"                8 < : ~ ! ! ^ } } * @ = ",
"              4 9 : &+4 4 ) ) ' * *     ",
"            < { { . 9 : < 4 < 9 - %     ",
"          8 { - 9 : { . 9 < 4 3 ) #     ",
"        8 ) < < { - 9 : 8 [ : - % 6     ",
"        < - - 9 : < ) + [ 8 [ 9 # 6     ",
"      3 ~ ) ) ) . - : { [ + [ + & #     ",
"    ; & 9 : ~ ) ) ) 9 . + [ [ [ . 6     ",
"    ) & 5 & 9 : ~ ) ~ . + [ + [ { 6     ",
"        . % 5 & 9 < ) % . { [ [ - .     ",
"          ) - & 5 & - # & - & = Z.      ",
"              ; & 5 5 6 6 -     '       ",
"              : & 6 7 &           /     ",
"                                  . 1   ",
"                                        "};
