/* XPM */
static char * dspPricesByCustomerType_xpm[] = {
"20 20 239 2",
"  	c None",
". 	c #808080",
"+ 	c #C0DCC0",
"@ 	c #553F00",
"# 	c #553F55",
"$ 	c #555F00",
"% 	c #555F55",
"& 	c #557F55",
"* 	c #559F55",
"= 	c #7F5F55",
"- 	c #7F7F55",
"; 	c #7F9F55",
"> 	c #AA5F55",
", 	c #AA7F55",
"' 	c #AA9F55",
") 	c #AA9FAA",
"! 	c #AABF55",
"~ 	c #AABFAA",
"{ 	c #AADFAA",
"] 	c #D47F00",
"^ 	c #D47F55",
"/ 	c #D49F55",
"( 	c #D49FAA",
"_ 	c #D4BFAA",
": 	c #D4DFAA",
"< 	c #D4DFFF",
"[ 	c #FF9F55",
"} 	c #FFBF55",
"| 	c #FFDF55",
"1 	c #FFDFAA",
"2 	c #FFFFAA",
"3 	c #2A1F00",
"4 	c #2A3F00",
"5 	c #2A3F55",
"6 	c #FFFBF0",
"7 	c #A0A0A4",
"8 	c #FFFFFF",
"9 	c #000000",
"0 	c #800000",
"a 	c #008000",
"b 	c #808000",
"c 	c #000080",
"d 	c #800080",
"e 	c #008080",
"f 	c #A6CAF0",
"g 	c #2A3FAA",
"h 	c #2A3FFF",
"i 	c #2A5F00",
"j 	c #2A5F55",
"k 	c #2A5FAA",
"l 	c #2A5FFF",
"m 	c #2A7F00",
"n 	c #2A7F55",
"o 	c #2A7FAA",
"p 	c #2A7FFF",
"q 	c #2A9F00",
"r 	c #2A9F55",
"s 	c #2A9FAA",
"t 	c #2A9FFF",
"u 	c #2ABF00",
"v 	c #2ABF55",
"w 	c #2ABFAA",
"x 	c #2ABFFF",
"y 	c #2ADF00",
"z 	c #2ADF55",
"A 	c #2ADFAA",
"B 	c #2ADFFF",
"C 	c #2AFF00",
"D 	c #2AFF55",
"E 	c #2AFFAA",
"F 	c #2AFFFF",
"G 	c #550000",
"H 	c #550055",
"I 	c #5500AA",
"J 	c #5500FF",
"K 	c #551F00",
"L 	c #551F55",
"M 	c #551FAA",
"N 	c #551FFF",
"O 	c #553FAA",
"P 	c #553FFF",
"Q 	c #555FAA",
"R 	c #555FFF",
"S 	c #557F00",
"T 	c #557FAA",
"U 	c #557FFF",
"V 	c #559F00",
"W 	c #559FAA",
"X 	c #559FFF",
"Y 	c #55BF00",
"Z 	c #55BF55",
"` 	c #55BFAA",
" .	c #55BFFF",
"..	c #55DF00",
"+.	c #55DF55",
"@.	c #55DFAA",
"#.	c #55DFFF",
"$.	c #55FF00",
"%.	c #55FF55",
"&.	c #55FFAA",
"*.	c #55FFFF",
"=.	c #7F0000",
"-.	c #7F0055",
";.	c #7F00AA",
">.	c #7F00FF",
",.	c #7F1F00",
"'.	c #7F1F55",
").	c #7F1FAA",
"!.	c #7F1FFF",
"~.	c #7F3F00",
"{.	c #7F3F55",
"].	c #7F3FAA",
"^.	c #7F3FFF",
"/.	c #7F5F00",
"(.	c #7F5FAA",
"_.	c #7F5FFF",
":.	c #7F7F00",
"<.	c #7F7FAA",
"[.	c #7F7FFF",
"}.	c #7F9F00",
"|.	c #7F9FAA",
"1.	c #7F9FFF",
"2.	c #7FBF00",
"3.	c #7FBF55",
"4.	c #7FBFAA",
"5.	c #7FBFFF",
"6.	c #7FDF00",
"7.	c #7FDF55",
"8.	c #7FDFAA",
"9.	c #7FDFFF",
"0.	c #7FFF00",
"a.	c #7FFF55",
"b.	c #7FFFAA",
"c.	c #7FFFFF",
"d.	c #AA0000",
"e.	c #AA0055",
"f.	c #AA00AA",
"g.	c #AA00FF",
"h.	c #AA1F00",
"i.	c #AA1F55",
"j.	c #AA1FAA",
"k.	c #AA1FFF",
"l.	c #AA3F00",
"m.	c #AA3F55",
"n.	c #AA3FAA",
"o.	c #AA3FFF",
"p.	c #AA5F00",
"q.	c #AA5FAA",
"r.	c #AA5FFF",
"s.	c #AA7F00",
"t.	c #AA7FAA",
"u.	c #AA7FFF",
"v.	c #AA9F00",
"w.	c #AA9FFF",
"x.	c #AABF00",
"y.	c #AABFFF",
"z.	c #AADF00",
"A.	c #AADF55",
"B.	c #AADFFF",
"C.	c #AAFF00",
"D.	c #AAFF55",
"E.	c #AAFFAA",
"F.	c #AAFFFF",
"G.	c #D40000",
"H.	c #D40055",
"I.	c #D400AA",
"J.	c #D400FF",
"K.	c #D41F00",
"L.	c #D41F55",
"M.	c #D41FAA",
"N.	c #D41FFF",
"O.	c #D43F00",
"P.	c #D43F55",
"Q.	c #D43FAA",
"R.	c #D43FFF",
"S.	c #D45F00",
"T.	c #D45F55",
"U.	c #D45FAA",
"V.	c #D45FFF",
"W.	c #D47FAA",
"X.	c #D47FFF",
"Y.	c #D49F00",
"Z.	c #D49FFF",
"`.	c #D4BF00",
" +	c #D4BF55",
".+	c #D4BFFF",
"++	c #D4DF00",
"@+	c #D4DF55",
"#+	c #D4FF00",
"$+	c #D4FF55",
"%+	c #D4FFAA",
"&+	c #D4FFFF",
"*+	c #FF0055",
"=+	c #FF00AA",
"-+	c #FF1F00",
";+	c #FF1F55",
">+	c #FF1FAA",
",+	c #FF1FFF",
"'+	c #FF3F00",
")+	c #FF3F55",
"!+	c #FF3FAA",
"~+	c #FF3FFF",
"{+	c #FF5F00",
"]+	c #FF5F55",
"^+	c #FF5FAA",
"/+	c #FF5FFF",
"(+	c #FF7F00",
"_+	c #FF7F55",
":+	c #FF7FAA",
"<+	c #FF7FFF",
"[+	c #FF9F00",
"}+	c #FF9FAA",
"|+	c #FF9FFF",
"1+	c #FFBF00",
"2+	c #FFBFAA",
"3+	c #FFBFFF",
"4+	c #FFDF00",
"5+	c #FFDFFF",
"6+	c #FFFF55",
"7+	c #CCCCFF",
"8+	c #FFCCFF",
"9+	c #33FFFF",
"0+	c #66FFFF",
"a+	c #99FFFF",
"b+	c #CCFFFF",
"c+	c #007F00",
"d+	c #007F55",
"e+	c #007FAA",
"f+	c #007FFF",
"g+	c #009F00",
"h+	c #009F55",
"i+	c #009FAA",
"j+	c #009FFF",
"k+	c #00BF00",
"l+	c #00BF55",
"m+	c #00BFAA",
"n+	c #00BFFF",
"o+	c #00DF00",
"p+	c #FFFFFF",
"                                . 7     ",
"                    ~ 7   . . # . . %   ",
"                    % 3 # - = ^ ^ % # . ",
"                    % = ^ , , [ } ^ 4 5 ",
"                    % = [ / , _+/ ^ # # ",
"                6 : _ - ^ / , > ^ = #   ",
"              2 7 _ 2 A.> , & . - % &   ",
"            : ~ ~ . . ; . * - ~ ! ; *   ",
"          6 ~ - 7 _ ; & ~ - & ; & - &   ",
"        6 ' : : ~ - - 7 6 < 7 % $ j 7   ",
"        _ ; - . _ : ' + < 6 < |.@ @     ",
"      1 ! ' ' ' . - _ ~ < + < : % 4     ",
"    ; % ' _ ~ ' ' ' 7 . + < < < . 4     ",
"    ' % 3 % ' _ ! ' ! . + < + < ~ 4     ",
"        - % 3 % 7 : ' $ . ~ < < - .     ",
"          ' - % 3 % - @ % - % = Y.      ",
"              ; % 3 3 4 4 -     >       ",
"              _ % 4 5 %           ]     ",
"                                  . }   ",
"                                        "};
