/* XPM */
static char * dspPricesByCustomer_xpm[] = {
"20 20 238 2",
"  	c None",
". 	c #808080",
"+ 	c #C0DCC0",
"@ 	c #553F00",
"# 	c #553F55",
"$ 	c #555F00",
"% 	c #555F55",
"& 	c #557F00",
"* 	c #557F55",
"= 	c #559F55",
"- 	c #7F5F55",
"; 	c #7F7F55",
"> 	c #7F9F55",
", 	c #AA5F55",
"' 	c #AA9F55",
") 	c #AA9FAA",
"! 	c #AABF55",
"~ 	c #AABFAA",
"{ 	c #D45F55",
"] 	c #D47F00",
"^ 	c #D47F55",
"/ 	c #D49F55",
"( 	c #D49FAA",
"_ 	c #D4BFAA",
": 	c #D4DFAA",
"< 	c #D4DFFF",
"[ 	c #FF9F55",
"} 	c #FFBF55",
"| 	c #FFDF55",
"1 	c #FFDFAA",
"2 	c #FFFFAA",
"3 	c #2A1F00",
"4 	c #2A1F55",
"5 	c #2A3F00",
"6 	c #2A3F55",
"7 	c #FFFBF0",
"8 	c #A0A0A4",
"9 	c #FFFFFF",
"0 	c #000000",
"a 	c #800000",
"b 	c #008000",
"c 	c #808000",
"d 	c #000080",
"e 	c #800080",
"f 	c #008080",
"g 	c #A6CAF0",
"h 	c #2A3FAA",
"i 	c #2A3FFF",
"j 	c #2A5F00",
"k 	c #2A5F55",
"l 	c #2A5FAA",
"m 	c #2A5FFF",
"n 	c #2A7F00",
"o 	c #2A7F55",
"p 	c #2A7FAA",
"q 	c #2A7FFF",
"r 	c #2A9F00",
"s 	c #2A9F55",
"t 	c #2A9FAA",
"u 	c #2A9FFF",
"v 	c #2ABF00",
"w 	c #2ABF55",
"x 	c #2ABFAA",
"y 	c #2ABFFF",
"z 	c #2ADF00",
"A 	c #2ADF55",
"B 	c #2ADFAA",
"C 	c #2ADFFF",
"D 	c #2AFF00",
"E 	c #2AFF55",
"F 	c #2AFFAA",
"G 	c #2AFFFF",
"H 	c #550000",
"I 	c #550055",
"J 	c #5500AA",
"K 	c #5500FF",
"L 	c #551F00",
"M 	c #551F55",
"N 	c #551FAA",
"O 	c #551FFF",
"P 	c #553FAA",
"Q 	c #553FFF",
"R 	c #555FAA",
"S 	c #555FFF",
"T 	c #557FAA",
"U 	c #557FFF",
"V 	c #559F00",
"W 	c #559FAA",
"X 	c #559FFF",
"Y 	c #55BF00",
"Z 	c #55BF55",
"` 	c #55BFAA",
" .	c #55BFFF",
"..	c #55DF00",
"+.	c #55DF55",
"@.	c #55DFAA",
"#.	c #55DFFF",
"$.	c #55FF00",
"%.	c #55FF55",
"&.	c #55FFAA",
"*.	c #55FFFF",
"=.	c #7F0000",
"-.	c #7F0055",
";.	c #7F00AA",
">.	c #7F00FF",
",.	c #7F1F00",
"'.	c #7F1F55",
").	c #7F1FAA",
"!.	c #7F1FFF",
"~.	c #7F3F00",
"{.	c #7F3F55",
"].	c #7F3FAA",
"^.	c #7F3FFF",
"/.	c #7F5F00",
"(.	c #7F5FAA",
"_.	c #7F5FFF",
":.	c #7F7F00",
"<.	c #7F7FAA",
"[.	c #7F7FFF",
"}.	c #7F9F00",
"|.	c #7F9FAA",
"1.	c #7F9FFF",
"2.	c #7FBF00",
"3.	c #7FBF55",
"4.	c #7FBFAA",
"5.	c #7FBFFF",
"6.	c #7FDF00",
"7.	c #7FDF55",
"8.	c #7FDFAA",
"9.	c #7FDFFF",
"0.	c #7FFF00",
"a.	c #7FFF55",
"b.	c #7FFFAA",
"c.	c #7FFFFF",
"d.	c #AA0000",
"e.	c #AA0055",
"f.	c #AA00AA",
"g.	c #AA00FF",
"h.	c #AA1F00",
"i.	c #AA1F55",
"j.	c #AA1FAA",
"k.	c #AA1FFF",
"l.	c #AA3F00",
"m.	c #AA3F55",
"n.	c #AA3FAA",
"o.	c #AA3FFF",
"p.	c #AA5F00",
"q.	c #AA5FAA",
"r.	c #AA5FFF",
"s.	c #AA7F00",
"t.	c #AA7F55",
"u.	c #AA7FAA",
"v.	c #AA7FFF",
"w.	c #AA9F00",
"x.	c #AA9FFF",
"y.	c #AABF00",
"z.	c #AABFFF",
"A.	c #AADF00",
"B.	c #AADF55",
"C.	c #AADFAA",
"D.	c #AADFFF",
"E.	c #AAFF00",
"F.	c #AAFF55",
"G.	c #AAFFAA",
"H.	c #AAFFFF",
"I.	c #D40000",
"J.	c #D40055",
"K.	c #D400AA",
"L.	c #D400FF",
"M.	c #D41F00",
"N.	c #D41F55",
"O.	c #D41FAA",
"P.	c #D41FFF",
"Q.	c #D43F00",
"R.	c #D43F55",
"S.	c #D43FAA",
"T.	c #D43FFF",
"U.	c #D45F00",
"V.	c #D45FAA",
"W.	c #D45FFF",
"X.	c #D47FAA",
"Y.	c #D47FFF",
"Z.	c #D49F00",
"`.	c #D49FFF",
" +	c #D4BF00",
".+	c #D4BF55",
"++	c #D4BFFF",
"@+	c #D4DF00",
"#+	c #D4DF55",
"$+	c #D4FF00",
"%+	c #D4FF55",
"&+	c #D4FFAA",
"*+	c #D4FFFF",
"=+	c #FF0055",
"-+	c #FF00AA",
";+	c #FF1F00",
">+	c #FF1F55",
",+	c #FF1FAA",
"'+	c #FF1FFF",
")+	c #FF3F00",
"!+	c #FF3F55",
"~+	c #FF3FAA",
"{+	c #FF3FFF",
"]+	c #FF5F00",
"^+	c #FF5F55",
"/+	c #FF5FAA",
"(+	c #FF5FFF",
"_+	c #FF7F00",
":+	c #FF7F55",
"<+	c #FF7FAA",
"[+	c #FF7FFF",
"}+	c #FF9F00",
"|+	c #FF9FAA",
"1+	c #FF9FFF",
"2+	c #FFBF00",
"3+	c #FFBFAA",
"4+	c #FFBFFF",
"5+	c #FFDF00",
"6+	c #FFDFFF",
"7+	c #FFFF55",
"8+	c #CCCCFF",
"9+	c #FFCCFF",
"0+	c #33FFFF",
"a+	c #66FFFF",
"b+	c #99FFFF",
"c+	c #CCFFFF",
"d+	c #007F00",
"e+	c #007F55",
"f+	c #007FAA",
"g+	c #007FFF",
"h+	c #009F00",
"i+	c #009F55",
"j+	c #009FAA",
"k+	c #009FFF",
"l+	c #00BF00",
"m+	c #00BF55",
"n+	c #00BFAA",
"o+	c #FFFFFF",
"                              . . .     ",
"                    ~ 8     # ; . - %   ",
"                    % 3 % ; , ^ , # # . ",
"                    % 3 % - [ } } , 5 6 ",
"                    % 6 6 - ^ / / ^ 3 6 ",
"                7 : _ ! ) ' , ^ ^ - 4   ",
"              2 8 _ 2 2 : > ; , - # .   ",
"            : ~ ~ . 8 _ ~ V > ~ ; = V   ",
"          7 ~ ; 8 _ ~ . 8 . > ~ > > *   ",
"        7 ' : : ~ ; 8 _ 7 < ~ * * * %   ",
"        _ > ; . _ : ' + < 7 < 8 $ $     ",
"      1 ! ' ' ' . ; _ ~ < + < + % 5     ",
"    > % ' _ ~ ' ' ' 8 . < < + < . 5     ",
"    ' % 3 % ' _ ! ' ! . ~ < < < ~ 5     ",
"        ; % 3 % 8 : ' $ . ~ + < ; .     ",
"          ' ; % 3 % ; @ % ; % - Z.      ",
"              > % 3 3 5 5 ;     ,       ",
"              _ % 5 6 %           ]     ",
"                                  . }   ",
"                                        "};
