/* XPM */
static char * dspWoScheduleByItem_xpm[] = {
"20 20 17 1",
" 	c None",
".	c #000000",
"+	c #808080",
"@	c #C0DCC0",
"#	c #555F55",
"$	c #7F3F00",
"%	c #7F7FAA",
"&	c #AA3F00",
"*	c #AA9FAA",
"=	c #AABFAA",
"-	c #D4DFFF",
";	c #FF5F00",
">	c #CCCCFF",
",	c #FFFBF0",
"'	c #A0A0A4",
")	c #FFFFFF",
"!	c #FFFFFF",
" ............   +&  ",
" .))))))))))..&&&;&+",
" .)))))))))).);;&&&$",
" .)))))))))).);;;$$$",
" .)>@>@>@>@>.);;;$$$",
" .)))))))=))..&;;$$#",
" .)),--))#@,,=,*&$  ",
" .)>-@#'=#%*#'=@-.  ",
" .),))+##'##+----.  ",
" .)@*=***%%*,-='@.  ",
" .)>+%''**'@-,-=-.  ",
" .)))*%++-@*----@.  ",
" .))-%>#%-=+-@-@>.  ",
" .)*#+%%*'%+=---@.  ",
" .)),-=*''+++@@-=.  ",
" .,,--##%%+##%*+;.  ",
" .,,,>#>-.'>++>@#&  ",
" .,--@--@#>@>=>=*&  ",
" .,,,----=>@>>@>>.= ",
" .................  "};
