/* XPM */
static char * dspWoScheduleByWarehouse_xpm[] = {
"20 20 38 1",
" 	c None",
".	c #000000",
"+	c #7F5F00",
"@	c #7F3F00",
"#	c #7F7F55",
"$	c #FFFFFF",
"%	c #2A1F00",
"&	c #553F00",
"*	c #AA5F00",
"=	c #7F5F55",
"-	c #D49F55",
";	c #AA7F00",
">	c #D47F55",
",	c #551F00",
"'	c #CCCCFF",
")	c #C0DCC0",
"!	c #AA7F55",
"~	c #D49F00",
"{	c #2A0000",
"]	c #AABFAA",
"^	c #D4BF55",
"/	c #FFFBF0",
"(	c #D4DFFF",
"_	c #553F55",
":	c #555F55",
"<	c #A0A0A4",
"[	c #2A3F55",
"}	c #7F7FAA",
"|	c #808080",
"1	c #D4BFAA",
"2	c #AA9FAA",
"3	c #7F9FAA",
"4	c #555FAA",
"5	c #FFDFFF",
"6	c #A6CAF0",
"7	c #AA9FFF",
"8	c #AA7FAA",
"9	c #FFBF55",
" ............  +@#  ",
" .$$$$$$$$$$%&*+**= ",
" .$$$$$$$$$$+--;**+%",
" .$$$$$$$$$$+>--+&@,",
" .$')')')')'+!~!@{&&",
" .$$$$$$$]$$&>^~@{&%",
" .$$/(($$_)/]#=-+{: ",
" .$'()_<][}]_<]==.  ",
" .$/$$|::<::|((((.  ",
" .$1]]2223}2/(1<).  ",
" .$'|42322<)(/(](.  ",
" .$$$]<4|('2()((1.  ",
" .$$5}2||(]|(()(6.  ",
" .$2:4<}23}|]((().  ",
" .$$//72<2|||))(1.  ",
" .//((::}|4__<2!-{  ",
" .5//':')[<'||']=*  ",
" ./(5)(((:1')61'8*  ",
" .///(()']''1''16{9 ",
" .................  "};
