/* XPM */
static char * icon_xpm[] = {
"32 32 184 2",
"  	c None",
". 	c #964500",
"+ 	c #CE5E00",
"@ 	c #E36800",
"# 	c #DB6400",
"$ 	c #DC6500",
"% 	c #DC6400",
"& 	c #0095DC",
"* 	c #0095DB",
"= 	c #0098DF",
"- 	c #0078B0",
"; 	c #8D3E00",
"> 	c #D15C00",
", 	c #E26400",
"' 	c #DA6100",
") 	c #DB6000",
"! 	c #DB6100",
"~ 	c #DA6000",
"{ 	c #0090D8",
"] 	c #0090D7",
"^ 	c #0091D8",
"/ 	c #0092D9",
"( 	c #0093DC",
"_ 	c #0074AD",
": 	c #923E00",
"< 	c #D25900",
"[ 	c #E05F00",
"} 	c #D95D00",
"| 	c #DA5C00",
"1 	c #DB5D00",
"2 	c #DC5D00",
"3 	c #0089D2",
"4 	c #0089D1",
"5 	c #008AD2",
"6 	c #008DD7",
"7 	c #0070AA",
"8 	c #953C00",
"9 	c #D65600",
"0 	c #DE5A00",
"a 	c #D85800",
"b 	c #D95800",
"c 	c #D95900",
"d 	c #0079BE",
"e 	c #0086D2",
"f 	c #0082CC",
"g 	c #0083CD",
"h 	c #0086D3",
"i 	c #006DAB",
"j 	c #993900",
"k 	c #D65000",
"l 	c #DD5300",
"m 	c #D85100",
"n 	c #D95200",
"o 	c #005287",
"p 	c #0073BB",
"q 	c #007CC8",
"r 	c #0079C3",
"s 	c #007DCC",
"t 	c #0066A6",
"u 	c #9B3700",
"v 	c #D94D00",
"w 	c #DB4E00",
"x 	c #D74D00",
"y 	c #D84D00",
"z 	c #D74E00",
"A 	c #00508A",
"B 	c #006DB6",
"C 	c #0078C9",
"D 	c #0061A4",
"E 	c #A03500",
"F 	c #D94700",
"G 	c #DB4800",
"H 	c #D74700",
"I 	c #D84700",
"J 	c #D64700",
"K 	c #004B86",
"L 	c #005699",
"M 	c #A13100",
"N 	c #D84100",
"O 	c #D84000",
"P 	c #D74000",
"Q 	c #D64000",
"R 	c #D54100",
"S 	c #D23900",
"T 	c #D73A00",
"U 	c #D53A00",
"V 	c #D63A00",
"W 	c #D53900",
"X 	c #DD3C00",
"Y 	c #BF3400",
"Z 	c #DA3600",
"` 	c #D63500",
" .	c #D53500",
"..	c #DE3700",
"+.	c #C23000",
"@.	c #D52E00",
"#.	c #D42E00",
"$.	c #D42D00",
"%.	c #D52D00",
"&.	c #D42C00",
"*.	c #DB3000",
"=.	c #C52A00",
"-.	c #871B00",
";.	c #003D95",
">.	c #003C93",
",.	c #D42900",
"'.	c #D42800",
").	c #D32800",
"!.	c #DB2900",
"~.	c #C82600",
"{.	c #8C1900",
"].	c #00318B",
"^.	c #00328C",
"/.	c #D42200",
"(.	c #D42300",
"_.	c #D32300",
":.	c #D92300",
"<.	c #CA2100",
"[.	c #901800",
"}.	c #002581",
"|.	c #002582",
"1.	c #002682",
"2.	c #D31D00",
"3.	c #D21E00",
"4.	c #D21D00",
"5.	c #D71F00",
"6.	c #CE1D00",
"7.	c #901500",
"8.	c #00186B",
"9.	c #001C7D",
"0.	c #001B79",
"a.	c #001C7A",
"b.	c #001C79",
"c.	c #D11700",
"d.	c #D21900",
"e.	c #D21800",
"f.	c #D01800",
"g.	c #D51800",
"h.	c #CF1700",
"i.	c #911000",
"j.	c #000E62",
"k.	c #001173",
"l.	c #00106F",
"m.	c #001071",
"n.	c #001070",
"o.	c #001172",
"p.	c #D11300",
"q.	c #D11400",
"r.	c #D01300",
"s.	c #D41400",
"t.	c #D81400",
"u.	c #910E00",
"v.	c #000661",
"w.	c #00086E",
"x.	c #000768",
"y.	c #000869",
"z.	c #00086A",
"A.	c #000769",
"B.	c #DA1200",
"C.	c #D91100",
"D.	c #DA1100",
"E.	c #DA1000",
"F.	c #DC1100",
"G.	c #930B00",
"H.	c #000029",
"I.	c #00005E",
"J.	c #010069",
"K.	c #000168",
"L.	c #010067",
"M.	c #000067",
"N.	c #000066",
"O.	c #8F0900",
"P.	c #AA0B00",
"Q.	c #A70A00",
"R.	c #A70B00",
"S.	c #A60A00",
"T.	c #AE0B00",
"U.	c #880900",
"V.	c #0F0201",
"W.	c #02002C",
"X.	c #05004F",
"Y.	c #04004E",
"Z.	c #05004E",
"`.	c #05004D",
"                                                                ",
"                                                                ",
"                                                                ",
"                                                                ",
"                                                                ",
"                                                                ",
"        . + @ # $ % % #                 & * * * * = -           ",
"          ; > , ' ) ) ! ~             { ] ^ ] / ( _             ",
"            : < [ } } | 1 2         3 3 4 5 3 6 7               ",
"              8 9 0 a b c b       d e f g g h i                 ",
"                j k l m n n n     o p q r s t                   ",
"                  u v w x y y z     A B C D                     ",
"                    E F G H I F J     K L                       ",
"                      M N O P O Q R                             ",
"                        S T U V W X Y                           ",
"                      Z `  . . ...+.                            ",
"                    @.#.$.%.&.*.=.-.  ;.>.                      ",
"                  ,.,.'.'.).!.~.{.    ].^.].                    ",
"                /.(./.(._.:.<.[.    }.|.|.|.1.                  ",
"              2.2.3.4.4.5.6.7.    8.9.0.0.a.a.b.                ",
"            c.d.e.f.f.g.h.i.        j.k.l.m.m.n.o.              ",
"            p.q.q.r.s.t.u.            v.w.x.x.y.z.A.            ",
"          B.C.D.E.F.E.G.              H.I.J.K.L.M.N.L.          ",
"      O.P.Q.R.R.S.T.U.V.                W.X.X.Y.Z.Z.Z.`.        ",
"                                                                ",
"                                                                ",
"                                                                ",
"                                                                ",
"                                                                ",
"                                                                ",
"                                                                ",
"                                                                "};
