/* XPM */
static char * itemSites_xpm[] = {
"20 20 190 2",
"  	c None",
". 	c #808080",
"+ 	c #C0DCC0",
"@ 	c #2A7FAA",
"# 	c #2A9FAA",
"$ 	c #551F00",
"% 	c #553F00",
"& 	c #555F00",
"* 	c #555F55",
"= 	c #557FAA",
"- 	c #7F3F00",
"; 	c #7F5F00",
"> 	c #7F5F55",
", 	c #7F7F55",
"' 	c #AA3F00",
") 	c #AA5F00",
"! 	c #AA5F55",
"~ 	c #AA7F00",
"{ 	c #AA7F55",
"] 	c #AA9F00",
"^ 	c #AA9F55",
"/ 	c #AA9FAA",
"( 	c #AABFAA",
"_ 	c #D45F00",
": 	c #D47F00",
"< 	c #D49F55",
"[ 	c #D49FAA",
"} 	c #D4BF00",
"| 	c #D4BF55",
"1 	c #D4BFAA",
"2 	c #D4DFFF",
"3 	c #FF5F00",
"4 	c #FF7F00",
"5 	c #FFBF55",
"6 	c #FFDF00",
"7 	c #FFDF55",
"8 	c #FFDFAA",
"9 	c #009FFF",
"0 	c #00BFFF",
"a 	c #2A0000",
"b 	c #2A1F00",
"c 	c #FFFBF0",
"d 	c #A0A0A4",
"e 	c #FFFF00",
"f 	c #FFFFFF",
"g 	c #000000",
"h 	c #800000",
"i 	c #008000",
"j 	c #808000",
"k 	c #000080",
"l 	c #800080",
"m 	c #008080",
"n 	c #A6CAF0",
"o 	c #2A3FAA",
"p 	c #2A3FFF",
"q 	c #2A5F00",
"r 	c #2A5F55",
"s 	c #2A5FAA",
"t 	c #2A5FFF",
"u 	c #2A7F00",
"v 	c #2A7F55",
"w 	c #2A7FFF",
"x 	c #2A9F00",
"y 	c #2A9F55",
"z 	c #2A9FFF",
"A 	c #2ABF00",
"B 	c #2ABF55",
"C 	c #2ABFAA",
"D 	c #2ABFFF",
"E 	c #2ADF00",
"F 	c #2ADF55",
"G 	c #2ADFAA",
"H 	c #2ADFFF",
"I 	c #2AFF00",
"J 	c #2AFF55",
"K 	c #2AFFAA",
"L 	c #2AFFFF",
"M 	c #550000",
"N 	c #550055",
"O 	c #5500AA",
"P 	c #5500FF",
"Q 	c #551F55",
"R 	c #551FAA",
"S 	c #551FFF",
"T 	c #553F55",
"U 	c #553FAA",
"V 	c #553FFF",
"W 	c #555FAA",
"X 	c #555FFF",
"Y 	c #557F00",
"Z 	c #557F55",
"` 	c #557FFF",
" .	c #559F00",
"..	c #559F55",
"+.	c #559FAA",
"@.	c #559FFF",
"#.	c #55BF00",
"$.	c #55BF55",
"%.	c #55BFAA",
"&.	c #55BFFF",
"*.	c #55DF00",
"=.	c #55DF55",
"-.	c #55DFAA",
";.	c #55DFFF",
">.	c #55FF00",
",.	c #55FF55",
"'.	c #55FFAA",
").	c #55FFFF",
"!.	c #7F0000",
"~.	c #7F0055",
"{.	c #7F00AA",
"].	c #7F00FF",
"^.	c #7F1F00",
"/.	c #7F1F55",
"(.	c #7F1FAA",
"_.	c #7F1FFF",
":.	c #7F3F55",
"<.	c #7F3FAA",
"[.	c #7F3FFF",
"}.	c #7F5FAA",
"|.	c #7F5FFF",
"1.	c #7F7F00",
"2.	c #7F7FAA",
"3.	c #7F7FFF",
"4.	c #7F9F00",
"5.	c #7F9F55",
"6.	c #7F9FAA",
"7.	c #7F9FFF",
"8.	c #7FBF00",
"9.	c #7FBF55",
"0.	c #7FBFAA",
"a.	c #7FBFFF",
"b.	c #7FDF00",
"c.	c #7FDF55",
"d.	c #7FDFAA",
"e.	c #7FDFFF",
"f.	c #7FFF00",
"g.	c #7FFF55",
"h.	c #7FFFAA",
"i.	c #7FFFFF",
"j.	c #AA0000",
"k.	c #AA0055",
"l.	c #AA00AA",
"m.	c #AA00FF",
"n.	c #AA1F00",
"o.	c #AA1F55",
"p.	c #AA1FAA",
"q.	c #AA1FFF",
"r.	c #AA3F55",
"s.	c #AA3FAA",
"t.	c #AA3FFF",
"u.	c #AA5FAA",
"v.	c #AA5FFF",
"w.	c #AA7FAA",
"x.	c #AA7FFF",
"y.	c #AA9FFF",
"z.	c #AABF00",
"A.	c #AABF55",
"B.	c #AABFFF",
"C.	c #AADF00",
"D.	c #AADF55",
"E.	c #AADFAA",
"F.	c #AADFFF",
"G.	c #AAFF00",
"H.	c #AAFF55",
"I.	c #AAFFAA",
"J.	c #AAFFFF",
"K.	c #D40000",
"L.	c #D40055",
"M.	c #D400AA",
"N.	c #D400FF",
"O.	c #D41F00",
"P.	c #D41F55",
"Q.	c #D41FAA",
"R.	c #D41FFF",
"S.	c #D43F00",
"T.	c #D43F55",
"U.	c #D43FAA",
"V.	c #D43FFF",
"W.	c #D45F55",
"X.	c #D45FAA",
"Y.	c #D45FFF",
"Z.	c #D47F55",
"`.	c #D47FAA",
" +	c #D47FFF",
".+	c #D49F00",
"++	c #D49FFF",
"@+	c #D4BFFF",
"#+	c #D4DF00",
"$+	c #FFFFFF",
"                                        ",
"                                        ",
"              - ,                       ",
"        { ; ) ) ; - >                   ",
"    { ; ) ) ; ) ) ~ ; - >               ",
"    ; 5 < ~ ) ; ) ) ; - b               ",
"    ! | < < | ~ ; - % - b               ",
"    ; < ) | < ~ $ - $ - >               ",
"    ! < ) < { ) % $ b d c 2 2           ",
"    ) < < ~ ~ ~ $ b b + 2 c 2           ",
"    % .+< { < ) % a @ / 2 + 2 2         ",
"      > ~ < .+! % b # 2.+ 2 2 + 2       ",
"          > { ~ - ' 0 = n + 2 2 2       ",
"              % ' ' 0 9 . ( 2 2         ",
"                3 _ ' } | { , ; <       ",
"                4 4 ' 6 e } & - !       ",
"                3 4 ' } 6 .+& >   :     ",
"                < _ - ; | ] ,     w.5   ",
"                                        ",
"                                        "};
