/* XPM */
static char * items_xpm[] = {
"20 20 171 2",
"  	c None",
". 	c #808000",
"+ 	c #008080",
"@ 	c #808080",
"# 	c #C0DCC0",
"$ 	c #A6CAF0",
"% 	c #2A5F55",
"& 	c #2A5FAA",
"* 	c #2A7FAA",
"= 	c #2A9FAA",
"- 	c #2A9FFF",
"; 	c #551F00",
"> 	c #555F55",
", 	c #557FAA",
"' 	c #7F1F00",
") 	c #7F3F00",
"! 	c #7F5F00",
"~ 	c #7F5F55",
"{ 	c #7F7F55",
"] 	c #7F9FAA",
"^ 	c #AA3F00",
"/ 	c #AA5F00",
"( 	c #AA5F55",
"_ 	c #AA9F55",
": 	c #AA9FAA",
"< 	c #AABFAA",
"[ 	c #D45F00",
"} 	c #D47F00",
"| 	c #D49F00",
"1 	c #D49F55",
"2 	c #D49FAA",
"3 	c #D4BF00",
"4 	c #D4BF55",
"5 	c #D4BFAA",
"6 	c #D4DF55",
"7 	c #D4DFAA",
"8 	c #D4DFFF",
"9 	c #FF5F00",
"0 	c #FF7F00",
"a 	c #FFBF55",
"b 	c #FFDF00",
"c 	c #FFDF55",
"d 	c #FFDFAA",
"e 	c #007FAA",
"f 	c #009FFF",
"g 	c #00BFFF",
"h 	c #2A3F55",
"i 	c #FFFBF0",
"j 	c #FFFFFF",
"k 	c #000000",
"l 	c #800000",
"m 	c #008000",
"n 	c #000080",
"o 	c #800080",
"p 	c #2A3FAA",
"q 	c #2A3FFF",
"r 	c #2A5F00",
"s 	c #2A5FFF",
"t 	c #2A7F00",
"u 	c #2A7F55",
"v 	c #2A7FFF",
"w 	c #2A9F00",
"x 	c #2A9F55",
"y 	c #2ABF00",
"z 	c #2ABF55",
"A 	c #2ABFAA",
"B 	c #2ABFFF",
"C 	c #2ADF00",
"D 	c #2ADF55",
"E 	c #2ADFAA",
"F 	c #2ADFFF",
"G 	c #2AFF00",
"H 	c #2AFF55",
"I 	c #2AFFAA",
"J 	c #2AFFFF",
"K 	c #550000",
"L 	c #550055",
"M 	c #5500AA",
"N 	c #5500FF",
"O 	c #551F55",
"P 	c #551FAA",
"Q 	c #551FFF",
"R 	c #553F00",
"S 	c #553F55",
"T 	c #553FAA",
"U 	c #553FFF",
"V 	c #555F00",
"W 	c #555FAA",
"X 	c #555FFF",
"Y 	c #557F00",
"Z 	c #557F55",
"` 	c #557FFF",
" .	c #559F00",
"..	c #559F55",
"+.	c #559FAA",
"@.	c #559FFF",
"#.	c #55BF00",
"$.	c #55BF55",
"%.	c #55BFAA",
"&.	c #55BFFF",
"*.	c #55DF00",
"=.	c #55DF55",
"-.	c #55DFAA",
";.	c #55DFFF",
">.	c #55FF00",
",.	c #55FF55",
"'.	c #55FFAA",
").	c #55FFFF",
"!.	c #7F0000",
"~.	c #7F0055",
"{.	c #7F00AA",
"].	c #7F00FF",
"^.	c #7F1F55",
"/.	c #7F1FAA",
"(.	c #7F1FFF",
"_.	c #7F3F55",
":.	c #7F3FAA",
"<.	c #7F3FFF",
"[.	c #7F5FAA",
"}.	c #7F5FFF",
"|.	c #7F7F00",
"1.	c #7F7FAA",
"2.	c #7F7FFF",
"3.	c #7F9F00",
"4.	c #7F9F55",
"5.	c #7F9FFF",
"6.	c #7FBF00",
"7.	c #7FBF55",
"8.	c #7FBFAA",
"9.	c #7FBFFF",
"0.	c #7FDF00",
"a.	c #7FDF55",
"b.	c #7FDFAA",
"c.	c #7FDFFF",
"d.	c #7FFF00",
"e.	c #7FFF55",
"f.	c #7FFFAA",
"g.	c #7FFFFF",
"h.	c #AA0000",
"i.	c #AA0055",
"j.	c #AA00AA",
"k.	c #AA00FF",
"l.	c #AA1F00",
"m.	c #AA1F55",
"n.	c #AA1FAA",
"o.	c #AA1FFF",
"p.	c #AA3F55",
"q.	c #AA3FAA",
"r.	c #AA3FFF",
"s.	c #AA5FAA",
"t.	c #AA5FFF",
"u.	c #AA7F00",
"v.	c #AA7F55",
"w.	c #AA7FAA",
"x.	c #AA7FFF",
"y.	c #AA9F00",
"z.	c #AA9FFF",
"A.	c #AABF00",
"B.	c #AABF55",
"C.	c #AABFFF",
"D.	c #AADF00",
"E.	c #AADF55",
"F.	c #AADFAA",
"G.	c #AADFFF",
"H.	c #AAFF00",
"I.	c #AAFF55",
"J.	c #AAFFAA",
"K.	c #AAFFFF",
"L.	c #D40000",
"M.	c #D40055",
"N.	c #FFFFFF",
"                                        ",
"                                        ",
"                                        ",
"                ] * e ,                 ",
"              * * e e e * ]             ",
"            = e e e e e e h             ",
"            - f f v e & & h             ",
"            - f g f e h h &             ",
"            = f g f e & , &             ",
"          / * f g g e ] i 8 4 _         ",
"      ( ^ ^ ~ * * e * # 8 i 8 4 ~       ",
"      [ 9 [ [ ~ > & u : 8 # 8 # {       ",
"      } 9 0 9 ^ ' ) 3 @ # 8 8 8 _       ",
"      [ 9 0 9 ) ) ) b _ $ 8 # 8 <       ",
"      [ 9 0 9 ^ ) ' 3 b _ < 8 8 {       ",
"        [ [ 9 ^ ; ; | 3 4 { ~ ! }       ",
"            ( ! ~       _ . {     c     ",
"                                  }     ",
"                                  @ a   ",
"                                        "};
