/* XPM */
static char * newBOM_xpm[] = {
"20 20 153 2",
"  	c None",
". 	c #000000",
"+ 	c #808080",
"@ 	c #C0DCC0",
"# 	c #553F55",
"$ 	c #555F55",
"% 	c #7F5F55",
"& 	c #AA9FAA",
"* 	c #AABFAA",
"= 	c #D4DFFF",
"- 	c #2A1F00",
"; 	c #2A1F55",
"> 	c #2A3F55",
", 	c #FFFBF0",
"' 	c #A0A0A4",
") 	c #FFFF00",
"! 	c #FFFFFF",
"~ 	c #800000",
"{ 	c #008000",
"] 	c #808000",
"^ 	c #000080",
"/ 	c #800080",
"( 	c #008080",
"_ 	c #A6CAF0",
": 	c #2A3FAA",
"< 	c #2A3FFF",
"[ 	c #2A5F00",
"} 	c #2A5F55",
"| 	c #2A5FAA",
"1 	c #2A5FFF",
"2 	c #2A7F00",
"3 	c #2A7F55",
"4 	c #2A7FAA",
"5 	c #2A7FFF",
"6 	c #2A9F00",
"7 	c #2A9F55",
"8 	c #2A9FAA",
"9 	c #2A9FFF",
"0 	c #2ABF00",
"a 	c #2ABF55",
"b 	c #2ABFAA",
"c 	c #2ABFFF",
"d 	c #2ADF00",
"e 	c #2ADF55",
"f 	c #2ADFAA",
"g 	c #2ADFFF",
"h 	c #2AFF00",
"i 	c #2AFF55",
"j 	c #2AFFAA",
"k 	c #2AFFFF",
"l 	c #550000",
"m 	c #550055",
"n 	c #5500AA",
"o 	c #5500FF",
"p 	c #551F00",
"q 	c #551F55",
"r 	c #551FAA",
"s 	c #551FFF",
"t 	c #553F00",
"u 	c #553FAA",
"v 	c #553FFF",
"w 	c #555F00",
"x 	c #555FAA",
"y 	c #555FFF",
"z 	c #557F00",
"A 	c #557F55",
"B 	c #557FAA",
"C 	c #557FFF",
"D 	c #559F00",
"E 	c #559F55",
"F 	c #559FAA",
"G 	c #559FFF",
"H 	c #55BF00",
"I 	c #55BF55",
"J 	c #55BFAA",
"K 	c #55BFFF",
"L 	c #55DF00",
"M 	c #55DF55",
"N 	c #55DFAA",
"O 	c #55DFFF",
"P 	c #55FF00",
"Q 	c #55FF55",
"R 	c #55FFAA",
"S 	c #55FFFF",
"T 	c #7F0000",
"U 	c #7F0055",
"V 	c #7F00AA",
"W 	c #7F00FF",
"X 	c #7F1F00",
"Y 	c #7F1F55",
"Z 	c #7F1FAA",
"` 	c #7F1FFF",
" .	c #7F3F00",
"..	c #7F3F55",
"+.	c #7F3FAA",
"@.	c #7F3FFF",
"#.	c #7F5F00",
"$.	c #7F5FAA",
"%.	c #7F5FFF",
"&.	c #7F7F00",
"*.	c #7F7F55",
"=.	c #7F7FAA",
"-.	c #7F7FFF",
";.	c #7F9F00",
">.	c #7F9F55",
",.	c #7F9FAA",
"'.	c #7F9FFF",
").	c #7FBF00",
"!.	c #7FBF55",
"~.	c #7FBFAA",
"{.	c #7FBFFF",
"].	c #7FDF00",
"^.	c #7FDF55",
"/.	c #7FDFAA",
"(.	c #7FDFFF",
"_.	c #7FFF00",
":.	c #7FFF55",
"<.	c #7FFFAA",
"[.	c #7FFFFF",
"}.	c #AA0000",
"|.	c #AA0055",
"1.	c #AA00AA",
"2.	c #AA00FF",
"3.	c #AA1F00",
"4.	c #AA1F55",
"5.	c #AA1FAA",
"6.	c #AA1FFF",
"7.	c #AA3F00",
"8.	c #AA3F55",
"9.	c #AA3FAA",
"0.	c #AA3FFF",
"a.	c #AA5F00",
"b.	c #AA5F55",
"c.	c #AA5FAA",
"d.	c #AA5FFF",
"e.	c #AA7F00",
"f.	c #AA7F55",
"g.	c #AA7FAA",
"h.	c #AA7FFF",
"i.	c #AA9F00",
"j.	c #AA9F55",
"k.	c #AA9FFF",
"l.	c #AABF00",
"m.	c #AABF55",
"n.	c #AABFFF",
"o.	c #AADF00",
"p.	c #AADF55",
"q.	c #AADFAA",
"r.	c #AADFFF",
"s.	c #AAFF00",
"t.	c #AAFF55",
"u.	c #AAFFAA",
"v.	c #FFFFFF",
"            > - > # > # - - +           ",
"          + # $ # > t ; > # + +         ",
"        + - $ $ $ + $ + % $ $ - %       ",
"        # . $ # + ' + ! ' - # > #       ",
"      * '   - > + * + , ' > >   ' & '   ",
"      ' & ' *   > # # $ > # ' $ # + '   ",
"        & ' + + % $ $ $ $ + + $ ; $ '   ",
"          + - ' @ * * * = ' - # $ ' '   ",
"            ; ' & & & ' & + > $ ' @     ",
"            ' $ # $ $ ' + # $ ' ' *     ",
"    +         + + + + ' + + + '         ",
"  + '         ' ' ' ' ' ' ' ' .         ",
"  $ * $ #               .           .   ",
"  $ @ % + $ $ $ '   ' '   .   .   .     ",
"  % + > ' + = + + + + + $ % . ) .       ",
"  > # $ . $ ' > % # + . $ . . ) ) .   . ",
"  # * $ # %   $ +   + +   ' . . .       ",
"  + @ % +                 .   .   .     ",
"    '                   .           .   ",
"    $                         .         "};
