/* XPM */
static char * newBOO_xpm[] = {
"20 20 133 2",
"  	c None",
". 	c #000000",
"+ 	c #808080",
"@ 	c #C0DCC0",
"# 	c #550000",
"$ 	c #551F00",
"% 	c #553F55",
"& 	c #555F55",
"* 	c #7F1F00",
"= 	c #7F5F55",
"- 	c #AA1F00",
"; 	c #AA3F00",
"> 	c #AA5F55",
", 	c #AA9FAA",
"' 	c #AABFAA",
") 	c #D41F00",
"! 	c #D43F00",
"~ 	c #D45F55",
"{ 	c #D49FAA",
"] 	c #D4DFFF",
"^ 	c #2A1F55",
"/ 	c #2A3F55",
"( 	c #FFFBF0",
"_ 	c #A0A0A4",
": 	c #FFFF00",
"< 	c #FFFFFF",
"[ 	c #800000",
"} 	c #008000",
"| 	c #808000",
"1 	c #000080",
"2 	c #800080",
"3 	c #008080",
"4 	c #A6CAF0",
"5 	c #2A3FAA",
"6 	c #2A3FFF",
"7 	c #2A5F00",
"8 	c #2A5F55",
"9 	c #2A5FAA",
"0 	c #2A5FFF",
"a 	c #2A7F00",
"b 	c #2A7F55",
"c 	c #2A7FAA",
"d 	c #2A7FFF",
"e 	c #2A9F00",
"f 	c #2A9F55",
"g 	c #2A9FAA",
"h 	c #2A9FFF",
"i 	c #2ABF00",
"j 	c #2ABF55",
"k 	c #2ABFAA",
"l 	c #2ABFFF",
"m 	c #2ADF00",
"n 	c #2ADF55",
"o 	c #2ADFAA",
"p 	c #2ADFFF",
"q 	c #2AFF00",
"r 	c #2AFF55",
"s 	c #2AFFAA",
"t 	c #2AFFFF",
"u 	c #550055",
"v 	c #5500AA",
"w 	c #5500FF",
"x 	c #551F55",
"y 	c #551FAA",
"z 	c #551FFF",
"A 	c #553F00",
"B 	c #553FAA",
"C 	c #553FFF",
"D 	c #555F00",
"E 	c #555FAA",
"F 	c #555FFF",
"G 	c #557F00",
"H 	c #557F55",
"I 	c #557FAA",
"J 	c #557FFF",
"K 	c #559F00",
"L 	c #559F55",
"M 	c #559FAA",
"N 	c #559FFF",
"O 	c #55BF00",
"P 	c #55BF55",
"Q 	c #55BFAA",
"R 	c #55BFFF",
"S 	c #55DF00",
"T 	c #55DF55",
"U 	c #55DFAA",
"V 	c #55DFFF",
"W 	c #55FF00",
"X 	c #55FF55",
"Y 	c #55FFAA",
"Z 	c #55FFFF",
"` 	c #7F0000",
" .	c #7F0055",
"..	c #7F00AA",
"+.	c #7F00FF",
"@.	c #7F1F55",
"#.	c #7F1FAA",
"$.	c #7F1FFF",
"%.	c #7F3F00",
"&.	c #7F3F55",
"*.	c #7F3FAA",
"=.	c #7F3FFF",
"-.	c #7F5F00",
";.	c #7F5FAA",
">.	c #7F5FFF",
",.	c #7F7F00",
"'.	c #7F7F55",
").	c #7F7FAA",
"!.	c #7F7FFF",
"~.	c #7F9F00",
"{.	c #7F9F55",
"].	c #7F9FAA",
"^.	c #7F9FFF",
"/.	c #7FBF00",
"(.	c #7FBF55",
"_.	c #7FBFAA",
":.	c #7FBFFF",
"<.	c #7FDF00",
"[.	c #7FDF55",
"}.	c #7FDFAA",
"|.	c #7FDFFF",
"1.	c #7FFF00",
"2.	c #7FFF55",
"3.	c #7FFFAA",
"4.	c #7FFFFF",
"5.	c #AA0000",
"6.	c #AA0055",
"7.	c #AA00AA",
"8.	c #AA00FF",
"9.	c #AA1F55",
"0.	c #AA1FAA",
"a.	c #AA1FFF",
"b.	c #FFFFFF",
"                                        ",
"                                        ",
"                                        ",
"                                + = +   ",
"_ & & +                       + + + + + ",
"^ = ].= & + + + + + + + + + & % &   _   ",
"%     / & + + + + + + + + + '.% +       ",
"& % / %                     + % &   &   ",
"    & _                         % % %   ",
"                                & & _   ",
"                                        ",
"                              .         ",
"  = * @.$ @.$ @.$ {     .           .   ",
"> ; - - - - - - - -   _   . _ .   . +   ",
"$ ) - - - - - - - ) % _ _ _ . : . < , / ",
"> ) - - * * * * &.- = .   . . : : . + . ",
"    @.* @.* @.* *           . . .       ",
"                          .   .   .     ",
"                        .           .   ",
"                              .         "};
