/* XPM */
static char * newItemSite_xpm[] = {
"20 20 159 2",
"  	c None",
". 	c #000000",
"+ 	c #008080",
"@ 	c #808080",
"# 	c #C0DCC0",
"$ 	c #2A5F55",
"% 	c #2A5FAA",
"& 	c #551F00",
"* 	c #553F00",
"= 	c #555F55",
"- 	c #557FAA",
"; 	c #7F3F00",
"> 	c #7F5F00",
", 	c #7F5F55",
"' 	c #7F7F55",
") 	c #AA3F00",
"! 	c #AA5F00",
"~ 	c #AA5F55",
"{ 	c #AA7F00",
"] 	c #AA7F55",
"^ 	c #AA9F00",
"/ 	c #AA9F55",
"( 	c #D45F00",
"_ 	c #D49F55",
": 	c #D4BF00",
"< 	c #D4BF55",
"[ 	c #D4BFAA",
"} 	c #D4DFFF",
"| 	c #FF5F00",
"1 	c #FF7F00",
"2 	c #FFDF00",
"3 	c #007FAA",
"4 	c #009FFF",
"5 	c #00BFFF",
"6 	c #2A0000",
"7 	c #2A1F00",
"8 	c #2A3F55",
"9 	c #FFFBF0",
"0 	c #A0A0A4",
"a 	c #FFFF00",
"b 	c #800000",
"c 	c #008000",
"d 	c #808000",
"e 	c #000080",
"f 	c #800080",
"g 	c #A6CAF0",
"h 	c #2A3FAA",
"i 	c #2A3FFF",
"j 	c #2A5F00",
"k 	c #2A5FFF",
"l 	c #2A7F00",
"m 	c #2A7F55",
"n 	c #2A7FAA",
"o 	c #2A7FFF",
"p 	c #2A9F00",
"q 	c #2A9F55",
"r 	c #2A9FAA",
"s 	c #2A9FFF",
"t 	c #2ABF00",
"u 	c #2ABF55",
"v 	c #2ABFAA",
"w 	c #2ABFFF",
"x 	c #2ADF00",
"y 	c #2ADF55",
"z 	c #2ADFAA",
"A 	c #2ADFFF",
"B 	c #2AFF00",
"C 	c #2AFF55",
"D 	c #2AFFAA",
"E 	c #2AFFFF",
"F 	c #550000",
"G 	c #550055",
"H 	c #5500AA",
"I 	c #5500FF",
"J 	c #551F55",
"K 	c #551FAA",
"L 	c #551FFF",
"M 	c #553F55",
"N 	c #553FAA",
"O 	c #553FFF",
"P 	c #555F00",
"Q 	c #555FAA",
"R 	c #555FFF",
"S 	c #557F00",
"T 	c #557F55",
"U 	c #557FFF",
"V 	c #559F00",
"W 	c #559F55",
"X 	c #559FAA",
"Y 	c #559FFF",
"Z 	c #55BF00",
"` 	c #55BF55",
" .	c #55BFAA",
"..	c #55BFFF",
"+.	c #55DF00",
"@.	c #55DF55",
"#.	c #55DFAA",
"$.	c #55DFFF",
"%.	c #55FF00",
"&.	c #55FF55",
"*.	c #55FFAA",
"=.	c #55FFFF",
"-.	c #7F0000",
";.	c #7F0055",
">.	c #7F00AA",
",.	c #7F00FF",
"'.	c #7F1F00",
").	c #7F1F55",
"!.	c #7F1FAA",
"~.	c #7F1FFF",
"{.	c #7F3F55",
"].	c #7F3FAA",
"^.	c #7F3FFF",
"/.	c #7F5FAA",
"(.	c #7F5FFF",
"_.	c #7F7F00",
":.	c #7F7FAA",
"<.	c #7F7FFF",
"[.	c #7F9F00",
"}.	c #7F9F55",
"|.	c #7F9FAA",
"1.	c #7F9FFF",
"2.	c #7FBF00",
"3.	c #7FBF55",
"4.	c #7FBFAA",
"5.	c #7FBFFF",
"6.	c #7FDF00",
"7.	c #7FDF55",
"8.	c #7FDFAA",
"9.	c #7FDFFF",
"0.	c #7FFF00",
"a.	c #7FFF55",
"b.	c #7FFFAA",
"c.	c #7FFFFF",
"d.	c #AA0000",
"e.	c #AA0055",
"f.	c #AA00AA",
"g.	c #AA00FF",
"h.	c #AA1F00",
"i.	c #AA1F55",
"j.	c #AA1FAA",
"k.	c #AA1FFF",
"l.	c #AA3F55",
"m.	c #AA3FAA",
"n.	c #AA3FFF",
"o.	c #AA5FAA",
"p.	c #AA5FFF",
"q.	c #AA7FAA",
"r.	c #AA7FFF",
"s.	c #AA9FAA",
"t.	c #AA9FFF",
"u.	c #AABF00",
"v.	c #AABF55",
"w.	c #AABFAA",
"x.	c #AABFFF",
"y.	c #AADF00",
"z.	c #AADF55",
"A.	c #AADFAA",
"B.	c #FFFFFF",
"                                        ",
"                                        ",
"              ; '                       ",
"        ] > ! ! > ; ,                   ",
"    ] > ! ! > ! ! { > ; ,               ",
"    > < _ { ! > ! ! > ; 7               ",
"    ~ < _ _ < { > ; * ; 7               ",
"    > _ ! < _ { & ; & ; 7               ",
"    ~ _ ! _ ] { & & 7 ; 7               ",
"    ! _ _ { { { & 7 . ; 7               ",
"    * : _ ] _ ! ; 6 3 3 3 3 -           ",
"      , { _ _ ! * 7 4 3 3 % % .         ",
"          > ] { ; ) 5 4 . 8 $       .   ",
"              * ) ) 5 4 3 . 8 .   .     ",
"                | ( ) : : ^ . a .       ",
"                1 1 ) . a . . a a .   . ",
"                | 1 ) : 2 ^ . . .       ",
"                _ ( ; > < . ' .   .     ",
"                        .           .   ",
"                              .         "};
