/* XPM */
static char * newItem_xpm[] = {
"20 20 155 2",
"  	c None",
". 	c #000000",
"+ 	c #808000",
"@ 	c #008080",
"# 	c #C0DCC0",
"$ 	c #A6CAF0",
"% 	c #2A5F55",
"& 	c #2A5FAA",
"* 	c #2A7FAA",
"= 	c #2A9FAA",
"- 	c #2A9FFF",
"; 	c #551F00",
"> 	c #555F00",
", 	c #555F55",
"' 	c #557FAA",
") 	c #7F1F00",
"! 	c #7F3F00",
"~ 	c #7F5F00",
"{ 	c #7F5F55",
"] 	c #7F9FAA",
"^ 	c #AA3F00",
"/ 	c #AA5F00",
"( 	c #AA5F55",
"_ 	c #AA7F00",
": 	c #AA9F00",
"< 	c #AA9F55",
"[ 	c #D45F00",
"} 	c #D49F00",
"| 	c #D49F55",
"1 	c #D49FAA",
"2 	c #D4BF00",
"3 	c #D4DF55",
"4 	c #D4DFAA",
"5 	c #D4DFFF",
"6 	c #FF5F00",
"7 	c #FF7F00",
"8 	c #FFDF00",
"9 	c #007FAA",
"0 	c #009FFF",
"a 	c #00BFFF",
"b 	c #2A3F55",
"c 	c #FFFBF0",
"d 	c #FFFF00",
"e 	c #FFFFFF",
"f 	c #800000",
"g 	c #008000",
"h 	c #000080",
"i 	c #800080",
"j 	c #808080",
"k 	c #2A3FAA",
"l 	c #2A3FFF",
"m 	c #2A5F00",
"n 	c #2A5FFF",
"o 	c #2A7F00",
"p 	c #2A7F55",
"q 	c #2A7FFF",
"r 	c #2A9F00",
"s 	c #2A9F55",
"t 	c #2ABF00",
"u 	c #2ABF55",
"v 	c #2ABFAA",
"w 	c #2ABFFF",
"x 	c #2ADF00",
"y 	c #2ADF55",
"z 	c #2ADFAA",
"A 	c #2ADFFF",
"B 	c #2AFF00",
"C 	c #2AFF55",
"D 	c #2AFFAA",
"E 	c #2AFFFF",
"F 	c #550000",
"G 	c #550055",
"H 	c #5500AA",
"I 	c #5500FF",
"J 	c #551F55",
"K 	c #551FAA",
"L 	c #551FFF",
"M 	c #553F00",
"N 	c #553F55",
"O 	c #553FAA",
"P 	c #553FFF",
"Q 	c #555FAA",
"R 	c #555FFF",
"S 	c #557F00",
"T 	c #557F55",
"U 	c #557FFF",
"V 	c #559F00",
"W 	c #559F55",
"X 	c #559FAA",
"Y 	c #559FFF",
"Z 	c #55BF00",
"` 	c #55BF55",
" .	c #55BFAA",
"..	c #55BFFF",
"+.	c #55DF00",
"@.	c #55DF55",
"#.	c #55DFAA",
"$.	c #55DFFF",
"%.	c #55FF00",
"&.	c #55FF55",
"*.	c #55FFAA",
"=.	c #55FFFF",
"-.	c #7F0000",
";.	c #7F0055",
">.	c #7F00AA",
",.	c #7F00FF",
"'.	c #7F1F55",
").	c #7F1FAA",
"!.	c #7F1FFF",
"~.	c #7F3F55",
"{.	c #7F3FAA",
"].	c #7F3FFF",
"^.	c #7F5FAA",
"/.	c #7F5FFF",
"(.	c #7F7F00",
"_.	c #7F7F55",
":.	c #7F7FAA",
"<.	c #7F7FFF",
"[.	c #7F9F00",
"}.	c #7F9F55",
"|.	c #7F9FFF",
"1.	c #7FBF00",
"2.	c #7FBF55",
"3.	c #7FBFAA",
"4.	c #7FBFFF",
"5.	c #7FDF00",
"6.	c #7FDF55",
"7.	c #7FDFAA",
"8.	c #7FDFFF",
"9.	c #7FFF00",
"0.	c #7FFF55",
"a.	c #7FFFAA",
"b.	c #7FFFFF",
"c.	c #AA0000",
"d.	c #AA0055",
"e.	c #AA00AA",
"f.	c #AA00FF",
"g.	c #AA1F00",
"h.	c #AA1F55",
"i.	c #AA1FAA",
"j.	c #AA1FFF",
"k.	c #AA3F55",
"l.	c #AA3FAA",
"m.	c #AA3FFF",
"n.	c #AA5FAA",
"o.	c #AA5FFF",
"p.	c #AA7F55",
"q.	c #AA7FAA",
"r.	c #AA7FFF",
"s.	c #AA9FAA",
"t.	c #AA9FFF",
"u.	c #AABF00",
"v.	c #AABF55",
"w.	c #AABFAA",
"x.	c #FFFFFF",
"                                        ",
"                                        ",
"                                        ",
"                ] * 9 '                 ",
"              * * 9 9 9 * ]             ",
"            = 9 9 9 9 9 9 b             ",
"            - 0 0 q 9 & & b             ",
"            - 0 a 0 9 b b &             ",
"            = 0 a 0 9 & b b             ",
"          / * 0 a a 9 b b b +           ",
"      ( ^ ^ { * * 9 9 b % ~ : : {       ",
"      [ 6 [ [ { , & % % + _ _ . >       ",
"      7 6 7 [ ^ ) ! 8 8 . _ > ~ ~   .   ",
"      [ 6 7 6 ^ ! ! 2 8 8 . > . ~ .     ",
"      [ 6 7 6 ! ! ) 2 d 8 _ . d .       ",
"        [ [ 6 ^ ; M } . 8 . . d d .   . ",
"            ( ~ {       < + . . .       ",
"                          .   .   .     ",
"                        .           .   ",
"                              .         "};
