/* XPM */
static char * newPurchaseOrder_xpm[] = {
"20 20 15 1",
" 	c None",
".	c #000000",
"+	c #551F00",
"@	c #7F1F00",
"#	c #D43F55",
"$	c #D45F55",
"%	c #D47F55",
"&	c #D47FAA",
"*	c #D49FAA",
"=	c #FF9FAA",
"-	c #FFBFAA",
";	c #FFDFAA",
">	c #FFFBF0",
",	c #FFFFFF",
"'	c #FFFFFF",
" ............       ",
" .,,,,,,,,,,..      ",
" .,,,,,,,,,,.,.     ",
" .,,,,,,,,,,.,,.    ",
" .,---------.,,,.   ",
" .,,,,,,>*,,......  ",
" .,,,,,>$+%->>>>>.  ",
" .,---$+++++&=*=-.  ",
" .,,,,@@&@=#=&>;;.  ",
" .,,,>+#$@-*;----.  ",
" .,---@+@@=&*=**-.  ",
" .,,,>>@+++#-;-.-.  ",
" .,,>>>>&@@+.*--=.. ",
" .,--*=*$@&+#.&.*.  ",
" .,,>;#=&@#+#%.;..  ",
" .>>>-#+@++.*..;;. .",
" .>>>;-*#@#&%&....  ",
" .>>;->-*$*%=.-.-.  ",
" .>>>>-----=.--*=.. ",
" .................  "};
