/* XPM */
static char * newSalesOrder_xpm[] = {
"20 20 130 2",
"  	c None",
". 	c #000000",
"+ 	c #C0DCC0",
"@ 	c #2A5F00",
"# 	c #557F00",
"$ 	c #557F55",
"% 	c #559F55",
"& 	c #7F9F55",
"* 	c #7FBF55",
"= 	c #AABFAA",
"- 	c #AADFAA",
"; 	c #AAFFAA",
"> 	c #D4FFAA",
", 	c #FFFBF0",
"' 	c #A0A0A4",
") 	c #FFFF00",
"! 	c #FFFFFF",
"~ 	c #800000",
"{ 	c #008000",
"] 	c #808000",
"^ 	c #000080",
"/ 	c #800080",
"( 	c #008080",
"_ 	c #808080",
": 	c #A6CAF0",
"< 	c #2A3FAA",
"[ 	c #2A3FFF",
"} 	c #2A5F55",
"| 	c #2A5FAA",
"1 	c #2A5FFF",
"2 	c #2A7F00",
"3 	c #2A7F55",
"4 	c #2A7FAA",
"5 	c #2A7FFF",
"6 	c #2A9F00",
"7 	c #2A9F55",
"8 	c #2A9FAA",
"9 	c #2A9FFF",
"0 	c #2ABF00",
"a 	c #2ABF55",
"b 	c #2ABFAA",
"c 	c #2ABFFF",
"d 	c #2ADF00",
"e 	c #2ADF55",
"f 	c #2ADFAA",
"g 	c #2ADFFF",
"h 	c #2AFF00",
"i 	c #2AFF55",
"j 	c #2AFFAA",
"k 	c #2AFFFF",
"l 	c #550000",
"m 	c #550055",
"n 	c #5500AA",
"o 	c #5500FF",
"p 	c #551F00",
"q 	c #551F55",
"r 	c #551FAA",
"s 	c #551FFF",
"t 	c #553F00",
"u 	c #553F55",
"v 	c #553FAA",
"w 	c #553FFF",
"x 	c #555F00",
"y 	c #555F55",
"z 	c #555FAA",
"A 	c #555FFF",
"B 	c #557FAA",
"C 	c #557FFF",
"D 	c #559F00",
"E 	c #559FAA",
"F 	c #559FFF",
"G 	c #55BF00",
"H 	c #55BF55",
"I 	c #55BFAA",
"J 	c #55BFFF",
"K 	c #55DF00",
"L 	c #55DF55",
"M 	c #55DFAA",
"N 	c #55DFFF",
"O 	c #55FF00",
"P 	c #55FF55",
"Q 	c #55FFAA",
"R 	c #55FFFF",
"S 	c #7F0000",
"T 	c #7F0055",
"U 	c #7F00AA",
"V 	c #7F00FF",
"W 	c #7F1F00",
"X 	c #7F1F55",
"Y 	c #7F1FAA",
"Z 	c #7F1FFF",
"` 	c #7F3F00",
" .	c #7F3F55",
"..	c #7F3FAA",
"+.	c #7F3FFF",
"@.	c #7F5F00",
"#.	c #7F5F55",
"$.	c #7F5FAA",
"%.	c #7F5FFF",
"&.	c #7F7F00",
"*.	c #7F7F55",
"=.	c #7F7FAA",
"-.	c #7F7FFF",
";.	c #7F9F00",
">.	c #7F9FAA",
",.	c #7F9FFF",
"'.	c #7FBF00",
").	c #7FBFAA",
"!.	c #7FBFFF",
"~.	c #7FDF00",
"{.	c #7FDF55",
"].	c #7FDFAA",
"^.	c #7FDFFF",
"/.	c #7FFF00",
"(.	c #7FFF55",
"_.	c #7FFFAA",
":.	c #7FFFFF",
"<.	c #AA0000",
"[.	c #AA0055",
"}.	c #AA00AA",
"|.	c #AA00FF",
"1.	c #AA1F00",
"2.	c #AA1F55",
"3.	c #AA1FAA",
"4.	c #AA1FFF",
"5.	c #AA3F00",
"6.	c #AA3F55",
"7.	c #AA3FAA",
"8.	c #AA3FFF",
"9.	c #FFFFFF",
"  . . . . . . . . . . . .               ",
"  . ! ! ! ! ! ! ! ! ! ! . .             ",
"  . ! ! ! ! ! ! ! ! ! ! . ! .           ",
"  . ! ! ! ! ! ! ! ! ! ! . ! ! .         ",
"  . ! + + + + + + + + + . ! ! ! .       ",
"  . ! ! ! ! ! ! , = ! ! . . . . . .     ",
"  . ! ! ! ! , , & # = + , , , , , .     ",
"  . ! + + + = @ @ 2 x 2 = - + - > .     ",
"  . ! ! ! ! # & = $ + & + + > , > .     ",
"  . ! ! ! , @ & = # + + > + > > + .     ",
"  . ! + + + $ @ $ # + = + + + + > .     ",
"  . ! ! ! , , # @ @ @ & > > > . ; .     ",
"  . ! ! ! , , , = # $ @ . + ; > ; . .   ",
"  . ! + + + - - = # - @ % . - . ; .     ",
"  . ! ! , , & - - $ * @ * = . ) . .     ",
"  . , , , ; * @ # @ @ . - . . ) ) .   . ",
"  . , , > , > + % # * = = - . . . .     ",
"  . , , , > > > + * + = ; . ; . ; .     ",
"  . ! > , + , > > > ; - . > ; > ; . .   ",
"  . . . . . . . . . . . . . . . . .     "};
