/* XPM */
static const char * OpenMFGIcon[] = {
"32 32 257 2",
"  	c None",
". 	c #A6CAF0",
"+ 	c #2A3FAA",
"@ 	c #2A5FAA",
"# 	c #2A7FAA",
"$ 	c #555FAA",
"% 	c #557FAA",
"& 	c #559FAA",
"* 	c #7F9FAA",
"= 	c #7F9FFF",
"- 	c #2A1FAA",
"; 	c #000000",
"> 	c #800000",
", 	c #008000",
"' 	c #808000",
") 	c #000080",
"! 	c #800080",
"~ 	c #008080",
"{ 	c #808080",
"] 	c #C0DCC0",
"^ 	c #2A3FFF",
"/ 	c #2A5F00",
"( 	c #2A5F55",
"_ 	c #2A5FFF",
": 	c #2A7F00",
"< 	c #2A7F55",
"[ 	c #2A7FFF",
"} 	c #2A9F00",
"| 	c #2A9F55",
"1 	c #2A9FAA",
"2 	c #2A9FFF",
"3 	c #2ABF00",
"4 	c #2ABF55",
"5 	c #2ABFAA",
"6 	c #2ABFFF",
"7 	c #2ADF00",
"8 	c #2ADF55",
"9 	c #2ADFAA",
"0 	c #2ADFFF",
"a 	c #2AFF00",
"b 	c #2AFF55",
"c 	c #2AFFAA",
"d 	c #2AFFFF",
"e 	c #550000",
"f 	c #550055",
"g 	c #5500AA",
"h 	c #5500FF",
"i 	c #551F00",
"j 	c #551F55",
"k 	c #551FAA",
"l 	c #551FFF",
"m 	c #553F00",
"n 	c #553F55",
"o 	c #553FAA",
"p 	c #553FFF",
"q 	c #555F00",
"r 	c #555F55",
"s 	c #555FFF",
"t 	c #557F00",
"u 	c #557F55",
"v 	c #557FFF",
"w 	c #559F00",
"x 	c #559F55",
"y 	c #559FFF",
"z 	c #55BF00",
"A 	c #55BF55",
"B 	c #55BFAA",
"C 	c #55BFFF",
"D 	c #55DF00",
"E 	c #55DF55",
"F 	c #55DFAA",
"G 	c #55DFFF",
"H 	c #55FF00",
"I 	c #55FF55",
"J 	c #55FFAA",
"K 	c #55FFFF",
"L 	c #7F0000",
"M 	c #7F0055",
"N 	c #7F00AA",
"O 	c #7F00FF",
"P 	c #7F1F00",
"Q 	c #7F1F55",
"R 	c #7F1FAA",
"S 	c #7F1FFF",
"T 	c #7F3F00",
"U 	c #7F3F55",
"V 	c #7F3FAA",
"W 	c #7F3FFF",
"X 	c #7F5F00",
"Y 	c #7F5F55",
"Z 	c #7F5FAA",
"` 	c #7F5FFF",
" .	c #7F7F00",
"..	c #7F7F55",
"+.	c #7F7FAA",
"@.	c #7F7FFF",
"#.	c #7F9F00",
"$.	c #7F9F55",
"%.	c #7FBF00",
"&.	c #7FBF55",
"*.	c #7FBFAA",
"=.	c #7FBFFF",
"-.	c #7FDF00",
";.	c #7FDF55",
">.	c #7FDFAA",
",.	c #7FDFFF",
"'.	c #7FFF00",
").	c #7FFF55",
"!.	c #7FFFAA",
"~.	c #7FFFFF",
"{.	c #AA0000",
"].	c #AA0055",
"^.	c #AA00AA",
"/.	c #AA00FF",
"(.	c #AA1F00",
"_.	c #AA1F55",
":.	c #AA1FAA",
"<.	c #AA1FFF",
"[.	c #AA3F00",
"}.	c #AA3F55",
"|.	c #AA3FAA",
"1.	c #AA3FFF",
"2.	c #AA5F00",
"3.	c #AA5F55",
"4.	c #AA5FAA",
"5.	c #AA5FFF",
"6.	c #AA7F00",
"7.	c #AA7F55",
"8.	c #AA7FAA",
"9.	c #AA7FFF",
"0.	c #AA9F00",
"a.	c #AA9F55",
"b.	c #AA9FAA",
"c.	c #AA9FFF",
"d.	c #AABF00",
"e.	c #AABF55",
"f.	c #AABFAA",
"g.	c #AABFFF",
"h.	c #AADF00",
"i.	c #AADF55",
"j.	c #AADFAA",
"k.	c #AADFFF",
"l.	c #AAFF00",
"m.	c #AAFF55",
"n.	c #AAFFAA",
"o.	c #AAFFFF",
"p.	c #D40000",
"q.	c #D40055",
"r.	c #D400AA",
"s.	c #D400FF",
"t.	c #D41F00",
"u.	c #D41F55",
"v.	c #D41FAA",
"w.	c #D41FFF",
"x.	c #D43F00",
"y.	c #D43F55",
"z.	c #D43FAA",
"A.	c #D43FFF",
"B.	c #D45F00",
"C.	c #D45F55",
"D.	c #D45FAA",
"E.	c #D45FFF",
"F.	c #D47F00",
"G.	c #D47F55",
"H.	c #D47FAA",
"I.	c #D47FFF",
"J.	c #D49F00",
"K.	c #D49F55",
"L.	c #D49FAA",
"M.	c #D49FFF",
"N.	c #D4BF00",
"O.	c #D4BF55",
"P.	c #D4BFAA",
"Q.	c #D4BFFF",
"R.	c #D4DF00",
"S.	c #D4DF55",
"T.	c #D4DFAA",
"U.	c #D4DFFF",
"V.	c #D4FF00",
"W.	c #D4FF55",
"X.	c #D4FFAA",
"Y.	c #D4FFFF",
"Z.	c #FF0055",
"`.	c #FF00AA",
" +	c #FF1F00",
".+	c #FF1F55",
"++	c #FF1FAA",
"@+	c #FF1FFF",
"#+	c #FF3F00",
"$+	c #FF3F55",
"%+	c #FF3FAA",
"&+	c #FF3FFF",
"*+	c #FF5F00",
"=+	c #FF5F55",
"-+	c #FF5FAA",
";+	c #FF5FFF",
">+	c #FF7F00",
",+	c #FF7F55",
"'+	c #FF7FAA",
")+	c #FF7FFF",
"!+	c #FF9F00",
"~+	c #FF9F55",
"{+	c #FF9FAA",
"]+	c #FF9FFF",
"^+	c #FFBF00",
"/+	c #FFBF55",
"(+	c #FFBFAA",
"_+	c #FFBFFF",
":+	c #FFDF00",
"<+	c #FFDF55",
"[+	c #FFDFAA",
"}+	c #FFDFFF",
"|+	c #FFFF55",
"1+	c #FFFFAA",
"2+	c #CCCCFF",
"3+	c #FFCCFF",
"4+	c #33FFFF",
"5+	c #66FFFF",
"6+	c #99FFFF",
"7+	c #CCFFFF",
"8+	c #007F00",
"9+	c #007F55",
"0+	c #007FAA",
"a+	c #007FFF",
"b+	c #009F00",
"c+	c #009F55",
"d+	c #009FAA",
"e+	c #009FFF",
"f+	c #00BF00",
"g+	c #00BF55",
"h+	c #00BFAA",
"i+	c #FFFFFF",
"j+	c #E7E7E7",
"k+	c #E8E8E8",
"l+	c #E9E9E9",
"m+	c #EAEAEA",
"n+	c #EBEBEB",
"o+	c #ECECEC",
"p+	c #EDEDED",
"q+	c #EEEEEE",
"r+	c #EFEFEF",
"s+	c #F0F0F0",
"t+	c #F1F1F1",
"u+	c #F2F2F2",
"v+	c #F3F3F3",
"w+	c #F4F4F4",
"x+	c #F5F5F5",
"y+	c #F6F6F6",
"z+	c #F7F7F7",
"A+	c #F8F8F8",
"B+	c #F9F9F9",
"C+	c #FAFAFA",
"D+	c #FBFBFB",
"E+	c #FCFCFC",
"F+	c #FDFDFD",
"G+	c #FEFEFE",
"H+	c #FFFFFF",
"                                                                ",
"                                                                ",
"                                                & & %           ",
"                                            & & % y % & @       ",
"                                        & # v % & # 1 % & +     ",
"                                        % & % # @ % % & % %     ",
"                                      # v % @ - @   & % v % %   ",
"                                      & % % + @     & & v % -   ",
"                  & %                 % & @ @       v % & #     ",
"            * & % 2 % & # #           y % &       & % & # + +   ",
"        * % v % v % v % v %           [ v % & # 1 % & % # +     ",
"      % % y v & % y % & % y +         % % y % & % & % @ + @     ",
"      % 2 # @ + + @ v % v % #           # % % % % # $ -         ",
"    % & v @ - +     % & % & % @         + v # % @ + + @         ",
"    v % % + @       & # v % @ )             v + @ $             ",
"  y % & % +         1 & % y %         & % y % y % %             ",
"  # v % & +         1 % 2 # @ @ & % % % v # 1 % & @ #           ",
"  % % & 1 &       & % & 1 % # & % & % & % & % & % & %           ",
"  # v % v % v % v % & % v $ v % v % & # % % & % v % % -         ",
"  % % & % y % & % y % # $ # % & % y @ + + @ % & % y % v         ",
"    % # v % v % v % % + % % 1 % & + + +     & % v # v % @       ",
"      @ v # $ y @ @ @ +   & % & # + +         & % & % @ -       ",
"          -     +     %   % v % # -           # v % & $         ",
"                        % y % & % @         v & % y % %         ",
"                          # 1 % & @       % 1 % v # + -         ",
"                          & % & % & % & % & % & % & @           ",
"                        # # & % v % v % v % v % % # #           ",
"                          % & & % y % & % y v % + @ @           ",
"                          * # # & % v % v % & + @               ",
"                            @ % v $ @ y @ @ # +                 ",
"                                * -   % +                       ",
"                                                                "};
