/* XPM */
static char * CSVimpIcon[] = {
"32 32 517 2",
"  	c None",
". 	c #BCBDC3",
"+ 	c #C8CACF",
"@ 	c #C8C8C8",
"# 	c #D4D4D4",
"$ 	c #8C8C8C",
"% 	c #DCDCDB",
"& 	c #C2C2C1",
"* 	c #BEBEBD",
"= 	c #D3D3D4",
"- 	c #CCCDD0",
"; 	c #B5B5BA",
"> 	c #BABCC0",
", 	c #D3D4D9",
"' 	c #ABABAB",
") 	c #FFFFFF",
"! 	c #E5E5E5",
"~ 	c #9B9B9B",
"{ 	c #D3D4D6",
"] 	c #D7D8DC",
"^ 	c #D6D7DB",
"/ 	c #D1D3D7",
"( 	c #DBDDDE",
"_ 	c #A9A9A9",
": 	c #ACACAC",
"< 	c #F1F1F1",
"[ 	c #E7E7E7",
"} 	c #5B5B5B",
"| 	c #252525",
"1 	c #2D2D2D",
"2 	c #696A6A",
"3 	c #DCDEE1",
"4 	c #CCCFD3",
"5 	c #97989C",
"6 	c #A0A1A5",
"7 	c #CED1D6",
"8 	c #EEEEEE",
"9 	c #F4F4F4",
"0 	c #ECECEE",
"a 	c #EEEFF1",
"b 	c #E9EAEE",
"c 	c #E3E4E8",
"d 	c #CBCCD1",
"e 	c #C2C5CA",
"f 	c #BFC2C9",
"g 	c #C2C5CC",
"h 	c #CACDD2",
"i 	c #C8CBD0",
"j 	c #B6B6B6",
"k 	c #FDFDFD",
"l 	c #EDEDED",
"m 	c #F2F2F4",
"n 	c #F5F5F7",
"o 	c #F4F5F7",
"p 	c #E3E4E6",
"q 	c #D2D3D5",
"r 	c #78797B",
"s 	c #5E5F61",
"t 	c #96989D",
"u 	c #94959A",
"v 	c #E7EAF0",
"w 	c #E2E3E8",
"x 	c #E7E8EC",
"y 	c #E4E5E9",
"z 	c #E9EAEC",
"A 	c #ECEDEF",
"B 	c #E6E7E9",
"C 	c #E5E6EA",
"D 	c #DFDFE4",
"E 	c #DBDFE3",
"F 	c #D7D9E0",
"G 	c #D2D6DD",
"H 	c #BDC1C7",
"I 	c #A8A8A8",
"J 	c #7D7D7D",
"K 	c #FEFEFE",
"L 	c #ECECEC",
"M 	c #F3F3F4",
"N 	c #EBECEE",
"O 	c #959597",
"P 	c #717273",
"Q 	c #96979C",
"R 	c #98999D",
"S 	c #E9ECF1",
"T 	c #D7DADF",
"U 	c #D4D7DE",
"V 	c #E3E6EB",
"W 	c #E2E3E7",
"X 	c #E4E5EA",
"Y 	c #E1E2E7",
"Z 	c #E1E1E7",
"` 	c #DBDEE2",
" .	c #D6D9E0",
"..	c #BCBEC7",
"+.	c #ADAEAF",
"@.	c #737373",
"#.	c #F5F6F8",
"$.	c #F5F5F6",
"%.	c #EEEEF1",
"&.	c #EFEFF1",
"*.	c #F0F1F3",
"=.	c #9D9D9F",
"-.	c #737375",
";.	c #909296",
">.	c #9A9A9C",
",.	c #F4F5F9",
"'.	c #E4E4E9",
").	c #D8DBE0",
"!.	c #DFE2E7",
"~.	c #D6D9E1",
"{.	c #E3E3E8",
"].	c #DCDFE6",
"^.	c #B1B7C0",
"/.	c #A0A1A6",
"(.	c #6E6F74",
"_.	c #DFE2EA",
":.	c #DEE1E8",
"<.	c #D4D8DC",
"[.	c #E9EAED",
"}.	c #9D9EA1",
"|.	c #707173",
"1.	c #86888D",
"2.	c #A9A8AA",
"3.	c #FCFDFF",
"4.	c #EAEBEF",
"5.	c #E0E1E5",
"6.	c #DDDEE3",
"7.	c #DFE0E5",
"8.	c #E0E1E6",
"9.	c #D9DCE1",
"0.	c #E2E5EA",
"a.	c #A7ABB7",
"b.	c #A8A9AD",
"c.	c #898A8F",
"d.	c #D9DCE2",
"e.	c #D7DAE1",
"f.	c #D8DBE2",
"g.	c #D6D9DF",
"h.	c #E4E5EB",
"i.	c #A6A7AB",
"j.	c #6E6F72",
"k.	c #76787D",
"l.	c #B7B7B7",
"m.	c #FAFAFB",
"n.	c #F3F3F5",
"o.	c #F1F1F3",
"p.	c #EFEFF2",
"q.	c #E8E9ED",
"r.	c #DEDFE3",
"s.	c #DCDFE4",
"t.	c #ADB2BC",
"u.	c #B3B4B8",
"v.	c #E8E9EE",
"w.	c #DFE0E6",
"x.	c #DBDEE3",
"y.	c #D8DBE1",
"z.	c #DADDE3",
"A.	c #A5A7AB",
"B.	c #696A6E",
"C.	c #696A71",
"D.	c #CBCBCB",
"E.	c #E2E2E2",
"F.	c #F9F9F9",
"G.	c #F5F5F5",
"H.	c #3D3D3D",
"I.	c #A7A7A7",
"J.	c #797979",
"K.	c #666666",
"L.	c #7D7F81",
"M.	c #D2D4D8",
"N.	c #B4B8C1",
"O.	c #BFC0C4",
"P.	c #A0A1A4",
"Q.	c #ECEFF3",
"R.	c #EBECF2",
"S.	c #E9EAEF",
"T.	c #E1E2E6",
"U.	c #DBDCE1",
"V.	c #B1B2B6",
"W.	c #5E6066",
"X.	c #CDCECF",
"Y.	c #FBFBFB",
"Z.	c #F6F6F6",
"`.	c #6D6D6D",
" +	c #4D4D4D",
".+	c #7C7C7E",
"++	c #A3A5AF",
"@+	c #D4D4D3",
"#+	c #C6CDD1",
"$+	c #CFD3DB",
"%+	c #D1D2D9",
"&+	c #DDDEE4",
"*+	c #E6E7EB",
"=+	c #DFE0E4",
"-+	c #DFE1E5",
";+	c #A7A7A8",
">+	c #9C9B9B",
",+	c #A9A4A4",
"'+	c #BAB8B8",
")+	c #BEBCBA",
"!+	c #D8DADB",
"~+	c #939394",
"{+	c #D5D5D5",
"]+	c #8F8F8F",
"^+	c #AEAEAE",
"/+	c #5D5D5D",
"(+	c #9B9B9E",
"_+	c #D6D8DE",
":+	c #A6A9B4",
"<+	c #B1B0B1",
"[+	c #C3A27E",
"}+	c #FFD153",
"|+	c #FFE46F",
"1+	c #FFF089",
"2+	c #F1EC99",
"3+	c #E1E3E6",
"4+	c #E2E2E6",
"5+	c #AFAFB0",
"6+	c #ADABAB",
"7+	c #7AE9F8",
"8+	c #8EEDFF",
"9+	c #6BD3FB",
"0+	c #6FA5CB",
"a+	c #BDBDBE",
"b+	c #B7B8BA",
"c+	c #B4B6B7",
"d+	c #A7A7AB",
"e+	c #2C2C2D",
"f+	c #272728",
"g+	c #2C2C2C",
"h+	c #777777",
"i+	c #C2C4C9",
"j+	c #A4A7B2",
"k+	c #DEDDDE",
"l+	c #8C8D8E",
"m+	c #D2A771",
"n+	c #FEBF44",
"o+	c #FED057",
"p+	c #FEDB65",
"q+	c #DFD07E",
"r+	c #E3E5EA",
"s+	c #BBBBBC",
"t+	c #B4AEAA",
"u+	c #5DD3EF",
"v+	c #3AC3FA",
"w+	c #079DF3",
"x+	c #2792D4",
"y+	c #83817F",
"z+	c #79797B",
"A+	c #737476",
"B+	c #757679",
"C+	c #636468",
"D+	c #4C4C4B",
"E+	c #515254",
"F+	c #424242",
"G+	c #5A5A5A",
"H+	c #E4E4E6",
"I+	c #919192",
"J+	c #656768",
"K+	c #E0AB6F",
"L+	c #FFB148",
"M+	c #FEBC54",
"N+	c #FFC25A",
"O+	c #D0BD85",
"P+	c #636467",
"Q+	c #4F8DAC",
"R+	c #0A9FF9",
"S+	c #068CEE",
"T+	c #1D8CD9",
"U+	c #96908F",
"V+	c #8D8D8F",
"W+	c #8A8B8D",
"X+	c #8B8B8D",
"Y+	c #898A8C",
"Z+	c #8B8C8F",
"`+	c #86878B",
" @	c #656669",
".@	c #7E7F82",
"+@	c #80848B",
"@@	c #D4D5D6",
"#@	c #8A8A8A",
"$@	c #6B6C6E",
"%@	c #E3995B",
"&@	c #FFA854",
"*@	c #FEAB5A",
"=@	c #FFB05B",
"-@	c #C2B395",
";@	c #4D4743",
">@	c #2270BE",
",@	c #0A6ED6",
"'@	c #9B9A9A",
")@	c #A7A8A9",
"!@	c #A4A4A6",
"~@	c #919193",
"{@	c #909092",
"]@	c #919295",
"^@	c #929396",
"/@	c #9E9FA3",
"(@	c #9FA0A4",
"_@	c #94989F",
":@	c #C4C7CD",
"<@	c #8B8B8B",
"[@	c #6C6C6C",
"}@	c #D7D7D7",
"|@	c #656B6E",
"1@	c #E89F6B",
"2@	c #FAAB71",
"3@	c #F9AA72",
"4@	c #FFB97B",
"5@	c #BFB5AA",
"6@	c #707171",
"7@	c #9EA7B3",
"8@	c #C1C1C2",
"9@	c #C5C5C6",
"0@	c #C4C4C5",
"a@	c #B4B4B6",
"b@	c #9C9C9E",
"c@	c #969698",
"d@	c #97989A",
"e@	c #9FA0A2",
"f@	c #B9BABE",
"g@	c #BDBDC2",
"h@	c #A6A8B0",
"i@	c #ACAFB5",
"j@	c #A3A3A2",
"k@	c #626262",
"l@	c #CFCFCF",
"m@	c #898A89",
"n@	c #5B5E62",
"o@	c #F7C3A5",
"p@	c #FAC5A6",
"q@	c #FBC0A2",
"r@	c #F19C78",
"s@	c #E4E4E3",
"t@	c #E1E1E1",
"u@	c #DADADA",
"v@	c #DFDFDF",
"w@	c #DDDDDE",
"x@	c #D7D7D8",
"y@	c #B5B5B7",
"z@	c #A5A5A7",
"A@	c #A9AAAC",
"B@	c #ACADAE",
"C@	c #A6A7AA",
"D@	c #B2B3B6",
"E@	c #A4A8AF",
"F@	c #D9D9D9",
"G@	c #D6D6D6",
"H@	c #C0C1C2",
"I@	c #898C95",
"J@	c #6A6A6A",
"K@	c #B3B3B3",
"L@	c #585858",
"M@	c #D3D1D0",
"N@	c #FEDED1",
"O@	c #F99D87",
"P@	c #F42D04",
"Q@	c #CFA39B",
"R@	c #E8E9EA",
"S@	c #EBEDEE",
"T@	c #F3F3F3",
"U@	c #DDDEDF",
"V@	c #D7D7DA",
"W@	c #AEAFB2",
"X@	c #C1C2C6",
"Y@	c #BDBFC5",
"Z@	c #B3B6BD",
"`@	c #B4B6BD",
" #	c #A3A5A9",
".#	c #B0B0B0",
"+#	c #E8E8E8",
"@#	c #C4C4C4",
"##	c #AAAAAB",
"$#	c #656975",
"%#	c #909090",
"&#	c #AFAFAF",
"*#	c #D4BDB9",
"=#	c #F99183",
"-#	c #F42A0C",
";#	c #F62B0F",
">#	c #D09287",
",#	c #EEEEEC",
"'#	c #769FDF",
")#	c #70A1E1",
"!#	c #BABDC1",
"~#	c #A5A8AE",
"{#	c #ABAEB1",
"]#	c #CECFD2",
"^#	c #E2E2E3",
"/#	c #E2E3E3",
"(#	c #E1E1E2",
"_#	c #EAEAEC",
":#	c #F1F2F4",
"<#	c #E0E0E0",
"[#	c #A3A3A4",
"}#	c #4A4D5A",
"|#	c #DBDBDC",
"1#	c #D8CFCE",
"2#	c #EF2611",
"3#	c #F32611",
"4#	c #F5260F",
"5#	c #CB6D64",
"6#	c #D0D5D4",
"7#	c #5671CE",
"8#	c #0730BD",
"9#	c #082EBD",
"0#	c #4B6DC9",
"a#	c #CDCCCB",
"b#	c #CDCDCD",
"c#	c #DEDEDE",
"d#	c #E5E5E7",
"e#	c #EAEBED",
"f#	c #E4E4E4",
"g#	c #C1C1C1",
"h#	c #BABABB",
"i#	c #898A8D",
"j#	c #E5E7E5",
"k#	c #D5D0CE",
"l#	c #E41B0C",
"m#	c #E81F0F",
"n#	c #EC1E10",
"o#	c #D34D44",
"p#	c #9A9E9F",
"q#	c #999A9A",
"r#	c #7D85A1",
"s#	c #0928B7",
"t#	c #0C29B4",
"u#	c #0824B2",
"v#	c #7590D1",
"w#	c #DFE0DE",
"x#	c #E3E3E3",
"y#	c #E6E6E8",
"z#	c #F0F0F2",
"A#	c #C6C6C6",
"B#	c #EAEAEA",
"C#	c #BCBCBC",
"D#	c #D3140D",
"E#	c #D9170E",
"F#	c #E0170F",
"G#	c #CD2219",
"H#	c #ECEFEF",
"I#	c #B9B9B9",
"J#	c #817F80",
"K#	c #676F97",
"L#	c #0920AA",
"M#	c #0D22A5",
"N#	c #091D97",
"O#	c #838BAB",
"P#	c #EDEEF2",
"Q#	c #E9E9E9",
"R#	c #C9C8C8",
"S#	c #BC1812",
"T#	c #BB100A",
"U#	c #B30C08",
"V#	c #A5110C",
"W#	c #949290",
"X#	c #B9B9BA",
"Y#	c #BDBDBD",
"Z#	c #BABDBE",
"`#	c #CBD7D9",
" $	c #D7E8EC",
".$	c #CAD5DD",
"+$	c #F6F6F8",
"@$	c #F3F4F6",
"#$	c #F1F2F6",
"$$	c #F0F1F5",
"%$	c #DCDCDC",
"&$	c #B6B6B5",
"*$	c #CFC4A8",
"=$	c #D8D1B1",
"-$	c #E8E3C0",
";$	c #EFEFCD",
">$	c #E7E7E6",
",$	c #F7F7F7",
"'$	c #FAFAFA",
")$	c #E0DEDE",
"!$	c #C7F7FC",
"~$	c #C4F2FC",
"{$	c #A3DDFB",
"]$	c #C1D6E8",
"^$	c #F7F7F9",
"/$	c #F4F4F6",
"($	c #DEDFE1",
"_$	c #E6E2DF",
":$	c #FFEBC1",
"<$	c #FFF1C9",
"[$	c #FFF4CE",
"}$	c #FDF6D2",
"|$	c #F3F3F2",
"1$	c #E9E6E6",
"2$	c #C5EFFA",
"3$	c #B9E6FE",
"4$	c #B3DEFC",
"5$	c #C9E3EE",
"6$	c #F9F8F9",
"7$	c #F2F3F5",
"8$	c #ECE9E6",
"9$	c #FFECD3",
"0$	c #FFF0D6",
"a$	c #FFF1D8",
"b$	c #FCF3DA",
"c$	c #E5E5E4",
"d$	c #D8D8D8",
"e$	c #C8E6FC",
"f$	c #C6E2FC",
"g$	c #D1E2F0",
"h$	c #EFEFEF",
"i$	c #F0EDE9",
"j$	c #FFF2E5",
"k$	c #FEF3E6",
"l$	c #FCF6EC",
"m$	c #E6E6E6",
"n$	c #E3E5E7",
"o$	c #DEE8F5",
"p$	c #F8F4F1",
"q$	c #FEF8F4",
"r$	c #FFF8F4",
"                                                                ",
"                                                                ",
"        .                         + @ # $                       ",
"        % & * = - ; >             , ' ) ! ~ { ] ^ /             ",
"        ( _ : < [ } | 1 2 3 4 5 6 7 ' ) 8 9 0 a b c d e f g h   ",
"        i j $ k k l m n o p q r s t u v w x y z A B C D E F G   ",
"        H I J K k L 9 M m N a O P Q R S E T U V W X Y w Z `  .  ",
"        ..+.@.#.$.B %.&.m A *.=.-.;.>.,.'.w ).!.~.!.{.).!.Y ].  ",
"        ^./.(._.:.<.W b [.y C }.|.1.2.3.4.4.W y 5.Y 6.7.8.9.0.  ",
"        a.b.c.V 0. .d.e.f.g.h.i.j.k.l.m.n.o.p.N c q.C r.Y 7.s.  ",
"        t.u.6 v v.w.6.s.x.y.z.A.B.C.D.E.F.G.H.I.J.} K.L.M.W 7.  ",
"        N.O.P.Q.R.S.T.w Y U.Y V.B.W.X.D.Y.Z.! `.) ) )  +.+C c   ",
"        ++@+#+$+%+, &+*+C =+-+;+>+,+'+)+!+Z.G.~+{+) ]+^+/+(+,._+",
"        :+<+[+}+|+1+2+3+[.4+5+6+7+8+9+0+a+b+c+d+e+K f+g+J j h+i+",
"        j+k+l+m+n+o+p+q+r+s+t+u+v+w+x+y+z+r A+B+C+D+E+    F+G+  ",
"          H+I+J+K+L+M+N+O+P+Q+R+S+T+U+V+W+X+Y+Z+`+ @.@+@        ",
"          @@J.#@$@%@&@*@=@-@;@>@,@'@)@!@~@{@V+]@^@/@(@_@        ",
"          :@<@[@}@|@1@2@3@4@5@6@7@8@9@0@a@b@c@d@e@f@g@h@        ",
"          i@j@k@l@m@n@o@p@q@r@s@t@u@v@w@x@y@z@A@B@C@D@E@        ",
"l v@F@G@H@I@^+J@K@L@M@N@O@P@Q@R@S@l T@&.U@V@W@X@Y@Z@`@ #.#      ",
"  +#@#.###$#^+%#&#*#=#-#;#>#,#'#)#!#~#{#]#^#/#(#_#m :#N         ",
"    <#D.[#}#|#<#1#2#3#4#5#6#7#8#9#0#a#b#G@c#F@c#d#&.*.e#        ",
"    f#g#h#i#j#k#l#m#n#o#p#q#r#s#t#u#v#w#<#x#y#z#n.*.a x         ",
"      A#j B#C#D#E#F#G#H#8 I#J#K#L#M#N#O#F.n o.n.*.*.P#          ",
"        Q#R#S#T#U#V#W#X#Y#@#^+I.Z#`# $.$$.+$o.@$*.#$$$          ",
"        %$&$*$=$-$;$>$,$'$E.)$!$~${$]$^$^$/$m @$:#@$:#          ",
"          ($_$:$<$[$}$|$l 1$2$3$4$5$6$n +$/$+$+$7$@$            ",
"            <#8$9$0$a$b$c$d$e$f$g$            n n               ",
"            h$f#i$j$k$k$l$m$n$o$                                ",
"                  p$q$r$q$                                      ",
"                                                                ",
"                                                                "};
