/* XPM */
static char * key_xpm[] = {
"16 16 14 1",
" 	c None",
".	c #FAED40",
"+	c #E5D139",
"@	c #EFDF3D",
"#	c #C7B532",
"$	c #FFF442",
"%	c #E8D43A",
"&	c #F2E23D",
"*	c #E0CC39",
"=	c #BFAE30",
"-	c #DFCB37",
";	c #C6B432",
">	c #BCB330",
",	c #C0AF30",
"                ",
"                ",
"                ",
"                ",
"  .++           ",
" @++++          ",
" +# #++$$$$$$$$ ",
" +   +++++++++% ",
" +& .+# +*= + # ",
" +++-;  +=  #   ",
"  +>,           ",
"                ",
"                ",
"                ",
"                ",
"                "};
