/* XPM */
static char * xTuple_xpm[] = {
"32 32 172 2",
"  	c None",
". 	c #944400",
"+ 	c #D36000",
"@ 	c #DE6600",
"# 	c #DC6500",
"$ 	c #DB6400",
"% 	c #0095DC",
"& 	c #0095DB",
"* 	c #0098DF",
"= 	c #007BB4",
"- 	c #8D3E00",
"; 	c #D35D00",
"> 	c #DD6200",
", 	c #DB6100",
"' 	c #DB6000",
") 	c #DA6000",
"! 	c #0090D7",
"~ 	c #0091D7",
"{ 	c #0090D8",
"] 	c #0092DB",
"^ 	c #0072AA",
"/ 	c #913E00",
"( 	c #D55B00",
"_ 	c #DC5E00",
": 	c #D95E00",
"< 	c #D95D00",
"[ 	c #DA5D00",
"} 	c #DB5D00",
"| 	c #0089D2",
"1 	c #008AD3",
"2 	c #008CD6",
"3 	c #0075B0",
"4 	c #943C00",
"5 	c #D95700",
"6 	c #DB5900",
"7 	c #D95800",
"8 	c #DA5900",
"9 	c #007BC2",
"0 	c #0084CF",
"a 	c #0082CC",
"b 	c #0083CC",
"c 	c #0082CB",
"d 	c #0085D0",
"e 	c #006AA7",
"f 	c #973900",
"g 	c #D65000",
"h 	c #DA5200",
"i 	c #D95100",
"j 	c #D95200",
"k 	c #005386",
"l 	c #0075BF",
"m 	c #007AC6",
"n 	c #007AC4",
"o 	c #007CC9",
"p 	c #006AAC",
"q 	c #9B3700",
"r 	c #DC4E00",
"s 	c #D94D00",
"t 	c #D84C00",
"u 	c #D74E00",
"v 	c #004F86",
"w 	c #006FB9",
"x 	c #0075C3",
"y 	c #0060A1",
"z 	c #9F3400",
"A 	c #D74600",
"B 	c #D84800",
"C 	c #D84700",
"D 	c #D94700",
"E 	c #D74700",
"F 	c #004C87",
"G 	c #005CA2",
"H 	c #A23100",
"I 	c #DA4100",
"J 	c #D84000",
"K 	c #D64000",
"L 	c #D64100",
"M 	c #D23900",
"N 	c #D53B00",
"O 	c #D63B00",
"P 	c #D63A00",
"Q 	c #DA3C00",
"R 	c #C63600",
"S 	c #D83600",
"T 	c #D53400",
"U 	c #D53500",
"V 	c #D93500",
"W 	c #C23000",
"X 	c #D52E00",
"Y 	c #D42F00",
"Z 	c #D42D00",
"` 	c #D52D00",
" .	c #D72F00",
"..	c #CA2C00",
"+.	c #841C00",
"@.	c #003C93",
"#.	c #D42900",
"$.	c #D42800",
"%.	c #D62800",
"&.	c #CB2600",
"*.	c #881900",
"=.	c #00318B",
"-.	c #00308B",
";.	c #D42200",
">.	c #D42300",
",.	c #D32300",
"'.	c #D52200",
").	c #CD2100",
"!.	c #8B1700",
"~.	c #002582",
"{.	c #002682",
"].	c #002581",
"^.	c #D31C00",
"/.	c #D21D00",
"(.	c #D31D00",
"_.	c #D41E00",
":.	c #CF1D00",
"<.	c #8F1400",
"[.	c #00186B",
"}.	c #001C7D",
"|.	c #001B79",
"1.	c #001C7A",
"2.	c #001B78",
"3.	c #D11700",
"4.	c #D21900",
"5.	c #D21800",
"6.	c #D11900",
"7.	c #D11800",
"8.	c #CF1800",
"9.	c #8F1000",
"0.	c #000F64",
"a.	c #001171",
"b.	c #00116F",
"c.	c #001071",
"d.	c #001070",
"e.	c #001172",
"f.	c #D21300",
"g.	c #D21400",
"h.	c #D11300",
"i.	c #D71400",
"j.	c #910E00",
"k.	c #000661",
"l.	c #00086C",
"m.	c #000769",
"n.	c #000869",
"o.	c #00086A",
"p.	c #D41200",
"q.	c #D21000",
"r.	c #D31100",
"s.	c #D41000",
"t.	c #D41100",
"u.	c #D30F00",
"v.	c #910B00",
"w.	c #00002E",
"x.	c #00005E",
"y.	c #000165",
"z.	c #000064",
"A.	c #000164",
"B.	c #000063",
"C.	c #010063",
"D.	c #980900",
"E.	c #A30A00",
"F.	c #A40B00",
"G.	c #A80B00",
"H.	c #880900",
"I.	c #150301",
"J.	c #020028",
"K.	c #04004B",
"L.	c #05004C",
"M.	c #04004C",
"N.	c #05004D",
"O.	c #06004D",
"                                                                ",
"                                                                ",
"                                                                ",
"                                                                ",
"                                                                ",
"                                                                ",
"        . + @ # # # # $                 % & & & & * =           ",
"          - ; > , ' ' , )             ! ~ { ! ! ] ^             ",
"            / ( _ : < [ } }         | | | 1 1 2 3               ",
"              4 5 6 7 7 7 7 8     9 0 a b c d e                 ",
"                f g h i j j i     k l m n o p                   ",
"                  q r s t t t u     v w x y                     ",
"                    z A B C C D E     F G                       ",
"                      H I J J J K L                             ",
"                        M N N O P Q R                           ",
"                      S T U U T V W                             ",
"                    X Y Z ` `  ...+.  @.@.                      ",
"                  #.#.$.$.#.%.&.*.  =.=.=.-.                    ",
"                ;.>.;.,.,.'.).!.    ~.~.{.].{.                  ",
"              ^./././.(._.:.<.    [.}.|.|.1.|.2.                ",
"            3.4.5.6.7.5.8.9.        0.a.b.c.c.d.e.              ",
"            f.g.g.h.g.i.j.            k.l.m.m.n.o.m.            ",
"          p.q.r.s.t.u.v.              w.x.y.y.z.A.B.C.          ",
"      D.E.E.F.F.E.G.H.I.                J.K.L.M.N.L.O.N.        ",
"                                                                ",
"                                                                ",
"                                                                ",
"                                                                ",
"                                                                ",
"                                                                ",
"                                                                ",
"                                                                "};
